<svg xmlns="http://www.w3.org/2000/svg" width="810.138" height="506.531" viewBox="0 0 810.138 506.531">
  <g id="Consulting-pana" transform="translate(-53.53 -42.804)">
    <g id="freepik--background-complete--inject-100" transform="translate(54.804 42.804)">
      <path id="パス_2" data-name="パス 2" d="M711.807,164.912a20.778,20.778,0,0,1-3.761,3.946l.986,4.932-7.657,3.453-3.021-4.044a20.556,20.556,0,0,1-5.438.136l-2.811,4.192-7.793-3.009.727-4.932a20.718,20.718,0,0,1-3.946-3.7l-4.932.974-3.379-7.633,4.044-3.021a20.548,20.548,0,0,1-.136-5.438l-4.192-2.811,3.009-7.793,4.994.727a20.34,20.34,0,0,1,3.7-3.946l-.974-4.932,7.633-3.391,3.021,4.044a20.543,20.543,0,0,1,5.438-.136l2.811-4.192,7.793,3.009-.728,4.932a20.284,20.284,0,0,1,3.933,3.7l4.932-.974,3.391,7.633-3.946,3.009a20.036,20.036,0,0,1,.136,5.438l4.192,2.811-3.095,7.793-4.932-.727Zm-8.434-8.52a9.915,9.915,0,1,0-.025.049Z" transform="translate(88.98 -22.87)" fill="none"/>
      <path id="パス_3" data-name="パス 3" d="M700.461,153.466a6.627,6.627,0,0,1-.962,2,9.076,9.076,0,0,1-13.428,1.714,8.731,8.731,0,0,1-1.726-2,8.435,8.435,0,0,1-1.122-2.466,9.137,9.137,0,0,1,3.921-10.16,8.633,8.633,0,0,1,2.466-1.122,9.137,9.137,0,0,1,7.263,1.073,9.038,9.038,0,0,1,4.168,8.89,6.635,6.635,0,0,1-.629,2.121,10.483,10.483,0,0,0,.432-2.146,8.977,8.977,0,0,0-1.319-5.672,8.742,8.742,0,0,0-7.3-4.106,8.2,8.2,0,0,0-2.466.321,8.383,8.383,0,0,0-2.38,1.06,8.705,8.705,0,0,0-3.7,9.605,8.37,8.37,0,0,0,1.06,2.392,8.039,8.039,0,0,0,1.615,1.9,8.792,8.792,0,0,0,8.175,1.85A8.9,8.9,0,0,0,699.3,155.4C700.153,154.205,700.4,153.441,700.461,153.466Z" transform="translate(91.868 -19.894)" fill="#e0e0e0"/>
      <path id="パス_4" data-name="パス 4" d="M711.872,164.982h.308l.95.123,3.7.493-.086.062c.752-2.01,1.751-4.636,2.947-7.818V158l-4.192-2.8h-.074v-.086a20.029,20.029,0,0,0-.148-5.4v-.1l.074-.062,4.044-3.033v.222l-3.4-7.62.222.111-4.932.986h-.123l-.086-.1a20.492,20.492,0,0,0-3.909-3.7l-.111-.074v-.136c.222-1.541.468-3.255.715-4.932l.148.247-7.793-3,.284-.086-2.811,4.192-.074.123h-.148A20.3,20.3,0,0,0,692,132.9h-.148l-.1-.123-3.009-4.044.3.086-7.633,3.391.148-.284.974,4.932v.16l-.123.1A19.851,19.851,0,0,0,678.7,141h0l-.247.111h-.629l-.629-.086-1.233-.185-2.466-.37.271-.16c-1.011,2.639-2.022,5.24-3.009,7.793l-.086-.3,4.18,2.811.136.086v.148a20.075,20.075,0,0,0,.136,5.376v.148l-.123.086-4.044,3.021.074-.3c1.159,2.6,2.281,5.154,3.378,7.633l-.259-.136,4.932-.974h.148l.086.111a20.51,20.51,0,0,0,3.884,3.7l.111.074v.136c-.259,1.714-.506,3.366-.74,4.932l-.136-.222,7.78,3.021-.234.074,2.824-4.192.062-.086h.111a20.591,20.591,0,0,0,5.4-.123h.1l.062.074,3,4.057h-.173l7.645-3.354-.074.123c-.37-1.985-.678-3.6-.937-4.932h0a20.782,20.782,0,0,0,2.947-2.836l.641-.777a1.711,1.711,0,0,1,.284-.505l-.185.284c-.123.185-.333.456-.617.8a19.417,19.417,0,0,1-2.9,2.922V168.9c.271,1.356.6,2.972,1.011,4.932v.1H709.1l-7.608,3.416h-.111l-.074-.1-3-3.884h.16a20.656,20.656,0,0,1-5.487.16l.173-.086-2.8,4.2-.086.123h-.148l-7.842-2.922h-.148v-.173c.234-1.615.469-3.28.715-4.932l.086.21a20.682,20.682,0,0,1-3.983-3.8l.222.086-4.932.986h-.185l-.074-.173-3.391-7.633-.086-.185.16-.111,4.044-3.021-.1.234a20.488,20.488,0,0,1-.136-5.5l.111.234-4.193-2.811-.173-.111.074-.2q1.48-3.835,3-7.793l.074-.185h.21l2.466.37,1.233.185.629.086h.678l-.247.111h0a20.6,20.6,0,0,1,3.8-4l-.086.247-.974-4.932v-.21l.185-.074,7.645-3.391.185-.074.111.16,3.021,4.044-.247-.1a20.789,20.789,0,0,1,5.512-.123l-.234.1,2.824-4.18.1-.16.185.062,7.78,3.021.173.062v.185c-.259,1.739-.505,3.44-.74,4.932l-.086-.21a20.645,20.645,0,0,1,3.983,3.81l-.209-.086,4.932-.962h.16V139l3.366,7.645v.136l-.111.086-4.032,2.984.062-.16a21.07,21.07,0,0,1,.123,5.475l-.074-.136,4.18,2.824.086.062v.1c-1.233,3.169-2.269,5.783-3.046,7.768h-.1l-3.7-.592-.95-.16Z" transform="translate(88.915 -22.94)" fill="#e0e0e0"/>
      <path id="パス_5" data-name="パス 5" d="M676.034,128.789a32.54,32.54,0,0,1-5.919,6.165l1.541,7.805-12.047,5.351-4.747-6.387a32.294,32.294,0,0,1-8.631.21l-4.377,6.671-12.331-4.747,1.147-7.867a32.27,32.27,0,0,1-6.165-5.931l-7.818,1.541-5.339-12.035,6.387-4.76a32.813,32.813,0,0,1-.222-8.631l-6.634-4.328,4.735-12.33,7.879,1.147a32.577,32.577,0,0,1,5.919-6.165l-1.541-7.818,12.047-5.339,4.76,6.387a32.207,32.207,0,0,1,8.631-.21l4.439-6.609,12.33,4.735-1.159,7.867a32.688,32.688,0,0,1,6.165,5.931L682.89,87.9l5.339,12.035-6.375,4.76a32.209,32.209,0,0,1,.21,8.631l6.609,4.439-4.735,12.33-7.879-1.147Zm-13.292-13.379a14.131,14.131,0,1,0-7.455,7.844,14.131,14.131,0,0,0,7.455-7.844Z" transform="translate(75.085 -36.254)" fill="#ebebeb" fill-rule="evenodd"/>
      <path id="パス_6" data-name="パス 6" d="M671.436,233.152a51.444,51.444,0,0,1-9.507,9.975l2.466,12.54L645.074,264.3l-7.645-10.259a51.418,51.418,0,0,1-13.773.358L616.541,265l-19.729-7.608,1.85-12.626a51.786,51.786,0,0,1-9.975-9.507l-12.54,2.466L567.515,218.4l10.247-7.645a51.422,51.422,0,0,1-.345-13.773L566.8,189.872l7.608-19.729,12.639,1.85A51.505,51.505,0,0,1,596.553,162l-2.466-12.54,19.334-8.57,7.633,10.247a52.009,52.009,0,0,1,13.786-.345l7.115-10.617,19.729,7.608-1.85,12.639a51.79,51.79,0,0,1,9.975,9.507l12.54-2.466,8.631,19.322-10.259,7.633a52.011,52.011,0,0,1,.358,13.785l10.6,7.115-7.608,19.729-12.639-1.85ZM650.092,211.6a22.688,22.688,0,1,0-29.322,13.009A22.688,22.688,0,0,0,650.092,211.6Z" transform="translate(64.813 -20.111)" fill="#ebebeb" fill-rule="evenodd"/>
      <path id="パス_7" data-name="パス 7" d="M234.231,81.726A45.561,45.561,0,1,1,182.6,43.292a45.561,45.561,0,0,1,51.628,38.434Z" transform="translate(-33.815 -42.804)" fill="#f5f5f5"/>
      <path id="パス_8" data-name="パス 8" d="M221.456,81.235A34.723,34.723,0,1,1,182.109,51.95a34.723,34.723,0,0,1,39.347,29.285Z" transform="translate(-31.768 -40.759)" fill="#ebebeb"/>
      <path id="パス_9" data-name="パス 9" d="M221.4,80.41c-.21,0-.567-1.443-1.5-4a36.991,36.991,0,0,0-5.5-9.963A34.636,34.636,0,0,0,201.346,56.18a32.847,32.847,0,0,0-4.525-1.665,31.651,31.651,0,0,0-4.932-1.048,34.341,34.341,0,0,0-5.191-.308,39.139,39.139,0,0,0-5.327.518,37.263,37.263,0,0,0-5.191,1.356,33.786,33.786,0,0,0-4.772,2.072,31,31,0,0,0-4.229,2.639,32.444,32.444,0,0,0-3.7,3.12,35.045,35.045,0,0,0-5.512,7.016,36.144,36.144,0,0,0-3.169,7.127,36.806,36.806,0,0,0-1.726,11.233c0,2.713.173,4.229,0,4.266s-.678-1.43-1-4.217a32.145,32.145,0,0,1,.949-11.813A35.056,35.056,0,0,1,170.2,54.812a36.99,36.99,0,0,1,5.13-2.281,35.66,35.66,0,0,1,11.356-2.01,35.006,35.006,0,0,1,5.6.37,33.194,33.194,0,0,1,5.277,1.233A34.782,34.782,0,0,1,202.394,54a36.3,36.3,0,0,1,7.978,5.228,35.056,35.056,0,0,1,5.536,6.165,32.059,32.059,0,0,1,4.932,10.765C221.531,78.831,221.556,80.385,221.4,80.41Z" transform="translate(-31.88 -41.006)" fill="#e0e0e0"/>
      <path id="パス_10" data-name="パス 10" d="M190.312,104.183l.962,5.98-5.339.851-.925-5.808c-5.327.518-10.666-.321-13.958-2.145l1.874-6.979a21.7,21.7,0,0,0,10.962,2.133l-1.43-8.9c-6.165-.493-13.07-1.406-14.291-9.026-.9-5.66,2.466-11.1,10.691-13.477l-.949-5.919,5.339-.851.925,5.808a24.291,24.291,0,0,1,11.344,1.529l-1.628,6.979a22.2,22.2,0,0,0-8.631-1.467l1.443,9.063c6.165.444,12.959,1.369,14.168,8.89C201.8,96.39,198.524,101.84,190.312,104.183Zm-9.1-22.713L179.979,73.9c-2.725,1.1-3.588,2.824-3.3,4.587S178.746,81.1,181.212,81.47Zm11.221,11.381c-.3-1.862-2-2.626-4.427-3.058l1.233,7.4c2.515-1.06,3.416-2.676,3.194-4.34Z" transform="translate(-28.121 -38.787)" fill="#e0e0e0"/>
      <path id="パス_11" data-name="パス 11" d="M235.407,217.535a79.088,79.088,0,1,1-89.606-66.7A79.088,79.088,0,0,1,235.407,217.535Z" transform="translate(-49.085 -17.823)" fill="#f5f5f5"/>
      <path id="パス_12" data-name="パス 12" d="M213.232,216.73a60.271,60.271,0,1,1-68.286-50.839,60.271,60.271,0,0,1,68.286,50.839Z" transform="translate(-45.529 -14.268)" fill="#ebebeb"/>
      <path id="パス_13" data-name="パス 13" d="M213.15,215.258c-.358,0-1-2.466-2.626-6.954a64.02,64.02,0,0,0-9.531-17.263,62.219,62.219,0,0,0-9.47-9.642,60.963,60.963,0,0,0-13.169-8.138,55.037,55.037,0,0,0-7.855-2.9,56,56,0,0,0-8.533-1.813,57.3,57.3,0,0,0-9.014-.53,64.3,64.3,0,0,0-9.26.9,63.4,63.4,0,0,0-9,2.343,57.949,57.949,0,0,0-8.286,3.588,56.724,56.724,0,0,0-7.4,4.649,55.75,55.75,0,0,0-6.375,5.425,60.419,60.419,0,0,0-9.556,12.17,62.021,62.021,0,0,0-5.561,12.33,64.279,64.279,0,0,0-3,19.495c0,4.723.3,7.4,0,7.4s-1.233-2.466-1.726-7.324a55.746,55.746,0,0,1,1.566-20.469,60.345,60.345,0,0,1,15.24-26.609,57.308,57.308,0,0,1,6.745-5.956,57.953,57.953,0,0,1,7.892-5.092,61.558,61.558,0,0,1,28.644-7.448,61.354,61.354,0,0,1,27.275,5.98,60.346,60.346,0,0,1,23.428,19.729,55.636,55.636,0,0,1,8.631,18.693C213.384,212.509,213.409,215.209,213.15,215.258Z" transform="translate(-45.731 -14.696)" fill="#e0e0e0"/>
      <path id="パス_14" data-name="パス 14" d="M159.169,256.541l1.665,10.37-9.248,1.48L149.971,258.3c-9.26.912-18.5-.543-24.229-3.7l3.28-12.109a37.793,37.793,0,0,0,19,3.7l-2.466-15.462c-10.666-.851-22.688-2.466-24.809-15.672-1.578-9.864,4.2-19.371,18.557-23.428l-1.64-10.271,9.26-1.492,1.6,10.1c7.041-.555,14.081.21,19.729,2.626l-2.8,12.133a38.459,38.459,0,0,0-14.982-2.5l2.466,15.734c10.666.765,22.5,2.38,24.587,15.425C179.071,243,173.424,252.46,159.169,256.541Zm-15.8-39.458-2.109-13.144c-4.723,1.9-6.239,4.932-5.746,7.953s3.576,4.587,7.855,5.228Zm19.494,19.729c-.53-3.243-3.49-4.562-7.694-5.314l2.047,12.762c4.464-1.689,6.116-4.427,5.647-7.386Z" transform="translate(-39.198 -10.861)" fill="#e0e0e0"/>
      <path id="パス_15" data-name="パス 15" d="M68.357,153.11a37.324,37.324,0,1,1,52.442-5.364,37.324,37.324,0,0,1-52.442,5.364Z" transform="translate(-54.563 -32.548)" fill="#f5f5f5"/>
      <path id="パス_16" data-name="パス 16" d="M72.285,144.549a28.36,28.36,0,1,1,20.835,6.261,28.446,28.446,0,0,1-20.835-6.261Z" transform="translate(-52.881 -30.867)" fill="#ebebeb"/>
      <path id="パス_17" data-name="パス 17" d="M70.861,144c.111-.148,1.159.555,3.132,1.578a30.481,30.481,0,0,0,8.829,2.972,28.52,28.52,0,0,0,13.564-1.011,28.89,28.89,0,0,0,7.2-3.588,27.125,27.125,0,0,0,3.3-2.688A29.768,29.768,0,0,0,109.825,138a30.333,30.333,0,0,0,2.392-3.7,27.2,27.2,0,0,0,1.726-3.9,25.7,25.7,0,0,0,1.1-3.97,25.4,25.4,0,0,0,.481-3.921,28.36,28.36,0,0,0-.555-7.275,28.816,28.816,0,0,0-2.01-6.079,30.53,30.53,0,0,0-5.166-7.744c-1.5-1.64-2.466-2.466-2.343-2.6a8.422,8.422,0,0,1,2.935,2,26.264,26.264,0,0,1,5.956,7.67,28.608,28.608,0,0,1,2.392,6.35,29.075,29.075,0,0,1,.358,11.985,28.584,28.584,0,0,1-1.122,4.291,28.251,28.251,0,0,1-1.85,4.217,30.371,30.371,0,0,1-2.565,3.983,30.821,30.821,0,0,1-3.169,3.514,30.134,30.134,0,0,1-3.588,2.885,27.981,27.981,0,0,1-3.847,2.195,27.032,27.032,0,0,1-3.958,1.541,28.557,28.557,0,0,1-14.464.617,26.363,26.363,0,0,1-8.964-3.7C71.662,145.025,70.787,144.1,70.861,144Z" transform="translate(-50.766 -29.752)" fill="#e0e0e0"/>
      <path id="パス_18" data-name="パス 18" d="M73.314,112.326l-3.884-3.021,2.75-3.465,3.785,3a20.962,20.962,0,0,1,9.605-6.437l2.725,5.253a17.941,17.941,0,0,0-7.793,4.784l5.783,4.587c4-3.107,8.631-6.387,13.638-2.466,3.7,2.922,4.71,8.089,1,14.057l3.847,3.058-2.75,3.465-3.773-3a20.135,20.135,0,0,1-7.694,5.364l-2.9-5.117a18.347,18.347,0,0,0,6.017-3.872l-5.894-4.673c-3.958,3.132-8.631,6.338-13.477,2.466C70.688,123.4,69.664,118.294,73.314,112.326Zm18.076,8.631,4.932,3.909c1.036-2.17.6-3.7-.53-4.6s-2.713-.395-4.4.74ZM78.308,120.4c1.233.962,2.663.481,4.365-.6l-4.784-3.785C76.9,118,77.2,119.478,78.308,120.4Z" transform="translate(-51.099 -28.915)" fill="#e0e0e0"/>
    </g>
    <g id="freepik--Desk--inject-100" transform="translate(53.53 548.694)">
      <path id="パス_19" data-name="パス 19" d="M833.976,453.4c0,.173-174.723.321-390.2.321S53.53,453.573,53.53,453.4s174.686-.321,390.248-.321S833.976,453.228,833.976,453.4Z" transform="translate(-53.53 -453.08)" fill="#263238"/>
    </g>
    <g id="freepik--Plants--inject-100" transform="translate(55.157 288.225)">
      <path id="パス_20" data-name="パス 20" d="M90.91,469.412a3.158,3.158,0,0,1,.234-.567c.185-.407.444-.937.764-1.628a41.92,41.92,0,0,0,2.244-6.51c1.48-5.8,2-14.636-.2-25.154A134.493,134.493,0,0,0,89.3,418.659c-1.973-5.993-4.266-12.331-6.165-19.236A74.415,74.415,0,0,1,80.1,377.315c.284-7.83,2.6-15.635,5.142-23.428s5.179-15.4,5.956-23.058a35.093,35.093,0,0,0-4.217-21.282c-3.379-6.165-7.62-11.517-10.789-17.028A59.321,59.321,0,0,1,69.7,276.156,60.913,60.913,0,0,1,69.3,250.8a47.311,47.311,0,0,1,2.639-8.964,2.467,2.467,0,0,1-.148.6c-.136.419-.308.986-.543,1.714a62.885,62.885,0,0,0-1.64,6.708,61.653,61.653,0,0,0,.653,25.167,59.028,59.028,0,0,0,6.51,16.153c3.169,5.438,7.4,10.728,10.863,17.016a35.759,35.759,0,0,1,4.377,21.739c-.789,7.781-3.44,15.438-5.968,23.218s-4.846,15.487-5.129,23.181a74.118,74.118,0,0,0,2.959,21.887c1.837,6.843,4.106,13.206,6.054,19.223a134.329,134.329,0,0,1,4.6,16.991c2.133,10.592,1.517,19.531-.074,25.339a38.625,38.625,0,0,1-2.392,6.51c-.358.666-.629,1.233-.838,1.591a3.6,3.6,0,0,1-.308.53Z" transform="translate(-51.749 -241.84)" fill="#263238"/>
      <path id="パス_21" data-name="パス 21" d="M78.525,293.592s-6.4-20.617,5.117-32.688a.715.715,0,0,1,1.233.358C85.48,264.665,86.256,275.035,78.525,293.592Z" transform="translate(-49.745 -237.452)" fill="#5e9cff"/>
      <path id="パス_22" data-name="パス 22" d="M82.094,266.43a18.842,18.842,0,0,1-.432,3.81c-.432,2.614-.925,5.7-1.48,9.088s-1.023,6.474-1.443,9.088a19.493,19.493,0,0,1-.678,3.761,16.029,16.029,0,0,1,.111-3.822c.222-2.355.629-5.6,1.233-9.162s1.233-6.757,1.7-9.063a17.374,17.374,0,0,1,.986-3.7Z" transform="translate(-49.455 -236.109)" fill="#263238"/>
      <path id="パス_23" data-name="パス 23" d="M84.33,331.805s3.933-21.233,19.8-26.5a.715.715,0,0,1,.912.888C104,309.5,99.829,319.019,84.33,331.805Z" transform="translate(-47.979 -227.058)" fill="#5e9cff"/>
      <path id="パス_24" data-name="パス 24" d="M99.828,309.75a18.492,18.492,0,0,1-2.158,3.157l-5.549,7.4L86.6,327.7a20.841,20.841,0,0,1-2.367,3.009,15.71,15.71,0,0,1,1.9-3.329c1.233-1.985,3.169-4.661,5.351-7.522s4.217-5.413,5.746-7.213A16.7,16.7,0,0,1,99.828,309.75Z" transform="translate(-48.003 -226.014)" fill="#263238"/>
      <path id="パス_25" data-name="パス 25" d="M80.88,375.908s-2.392-21.48,11.282-31.122a.715.715,0,0,1,1.134.592C93.223,348.781,92,359.151,80.88,375.908Z" transform="translate(-48.821 -217.88)" fill="#5e9cff"/>
      <path id="パス_26" data-name="パス 26" d="M89.6,350a19.569,19.569,0,0,1-1.159,3.7l-3.169,8.631-3.157,8.631a21.579,21.579,0,0,1-1.381,3.564,15.18,15.18,0,0,1,.838-3.7c.654-2.269,1.689-5.376,2.935-8.755s2.466-6.4,3.4-8.57A16.351,16.351,0,0,1,89.6,350Z" transform="translate(-48.818 -216.633)" fill="#263238"/>
      <path id="パス_27" data-name="パス 27" d="M90.551,419.261s-1.628-21.541,12.33-30.678a.715.715,0,0,1,1.11.617C103.868,392.652,102.277,402.923,90.551,419.261Z" transform="translate(-46.543 -207.67)" fill="#5e9cff"/>
      <path id="パス_28" data-name="パス 28" d="M100.152,393.75a19.357,19.357,0,0,1-1.233,3.613c-1.011,2.466-2.182,5.339-3.49,8.52l-3.453,8.533a21.248,21.248,0,0,1-1.517,3.5,16.486,16.486,0,0,1,.974-3.7c.74-2.244,1.874-5.314,3.255-8.631s2.688-6.313,3.7-8.446a17.51,17.51,0,0,1,1.763-3.391Z" transform="translate(-46.551 -206.438)" fill="#263238"/>
      <path id="パス_29" data-name="パス 29" d="M74.357,277.871s-19.137-10-19.507-26.732a.715.715,0,0,1,1.11-.617C58.808,252.52,66.687,259.289,74.357,277.871Z" transform="translate(-54.85 -239.844)" fill="#5e9cff"/>
      <path id="パス_30" data-name="パス 30" d="M58.07,255.68a18.916,18.916,0,0,1,2.38,3l5.4,7.46,5.413,7.4a20.84,20.84,0,0,1,2.182,3.144,15.805,15.805,0,0,1-2.626-2.787c-1.517-1.813-3.514-4.4-5.623-7.324s-3.933-5.623-5.216-7.608A17.125,17.125,0,0,1,58.07,255.68Z" transform="translate(-54.099 -238.615)" fill="#263238"/>
      <path id="パス_31" data-name="パス 31" d="M91.328,313.541s-19.729-8.816-21.1-25.475a.715.715,0,0,1,1.073-.678C74.263,289.176,82.549,295.465,91.328,313.541Z" transform="translate(-51.266 -231.248)" fill="#5e9cff"/>
      <path id="パス_32" data-name="パス 32" d="M73.73,292.37a20.245,20.245,0,0,1,2.565,2.848l5.832,7.115c2.195,2.651,4.18,5.056,5.857,7.1a19.367,19.367,0,0,1,2.367,3.009,17.074,17.074,0,0,1-2.725-2.626c-1.628-1.726-3.785-4.18-6.054-6.967s-4.279-5.376-5.672-7.287A16.877,16.877,0,0,1,73.73,292.37Z" transform="translate(-50.45 -230.064)" fill="#263238"/>
      <path id="パス_33" data-name="パス 33" d="M79.82,354.8S66.256,337.97,72.643,322.52a.715.715,0,0,1,1.233-.123C75.726,325.343,80.239,334.7,79.82,354.8Z" transform="translate(-51.102 -223.136)" fill="#5e9cff"/>
      <path id="パス_34" data-name="パス 34" d="M73.41,328a20.1,20.1,0,0,1,.986,3.7c.555,2.589,1.233,5.635,1.948,9s1.406,6.4,1.985,8.989a21.405,21.405,0,0,1,.74,3.7,15.908,15.908,0,0,1-1.233-3.613c-.666-2.269-1.467-5.438-2.219-8.952s-1.356-6.732-1.726-9.063A17.189,17.189,0,0,1,73.41,328Z" transform="translate(-50.524 -221.761)" fill="#263238"/>
      <path id="パス_35" data-name="パス 35" d="M92.909,400.767s-19.568-9.149-20.678-25.82a.715.715,0,0,1,1.1-.666C76.275,376.118,84.45,382.592,92.909,400.767Z" transform="translate(-50.8 -211.001)" fill="#5e9cff"/>
      <path id="パス_36" data-name="パス 36" d="M75.68,379.31a18.743,18.743,0,0,1,2.466,2.885l5.721,7.213,5.771,7.2a21.2,21.2,0,0,1,2.318,3.033,15.182,15.182,0,0,1-2.75-2.663c-1.6-1.751-3.7-4.242-5.943-7.065s-4.18-5.45-5.536-7.4a17.578,17.578,0,0,1-2.047-3.206Z" transform="translate(-49.995 -209.803)" fill="#263238"/>
      <path id="パス_37" data-name="パス 37" d="M127.67,326.88a2.132,2.132,0,0,1,0,.481v1.381c0,1.295-.136,3.046-.234,5.24-.247,4.6-.6,11.011-1.023,18.693h0c-1.393,7.805-5.376,16.474-10.728,24.883-3.921,6.165-8.027,11.825-11.578,17.065a119.974,119.974,0,0,0-8.631,14.34,60.2,60.2,0,0,0-4.069,10.53c-.345,1.295-.6,2.293-.752,2.984a5.29,5.29,0,0,1-.284,1.036,5.4,5.4,0,0,1,.123-1.073c.1-.691.308-1.714.617-3.021a55.082,55.082,0,0,1,3.847-10.7,114.109,114.109,0,0,1,8.631-14.513c3.527-5.277,7.608-10.912,11.517-17.078,5.314-8.372,9.273-16.893,10.728-24.587h0c.543-7.67.986-14.081,1.319-18.681.173-2.17.308-3.921.419-5.216a11.862,11.862,0,0,1,.136-1.381C127.744,326.88,127.645,326.88,127.67,326.88Z" transform="translate(-46.572 -222.021)" fill="#263238"/>
      <path id="パス_38" data-name="パス 38" d="M111.988,373s8.286-19.938-2.133-33.009a.715.715,0,0,0-1.233.247C107.685,343.565,105.971,353.824,111.988,373Z" transform="translate(-42.543 -219.027)" fill="#5e9cff"/>
      <path id="パス_39" data-name="パス 39" d="M110.011,345.58a17.6,17.6,0,0,1,.654,3.773c.3,2.343.629,5.6.875,9.186s.382,6.856.382,9.223a15.131,15.131,0,0,1-.234,3.822,21.344,21.344,0,0,1-.333-3.81c-.185-2.639-.382-5.746-.617-9.174s-.456-6.548-.641-9.186A18.829,18.829,0,0,1,110.011,345.58Z" transform="translate(-42.008 -217.663)" fill="#263238"/>
      <g id="グループ_1" data-name="グループ 1" transform="translate(65.116 120.704)" opacity="0.3">
        <path id="パス_40" data-name="パス 40" d="M111.988,373s8.286-19.938-2.133-33.009a.715.715,0,0,0-1.233.247C107.685,343.565,105.971,353.824,111.988,373Z" transform="translate(-107.659 -339.731)"/>
      </g>
      <path id="パス_41" data-name="パス 41" d="M91.579,411.923s6.646-20.555-4.809-32.725a.7.7,0,0,0-1.233.345C84.9,382.934,84.02,393.291,91.579,411.923Z" transform="translate(-47.793 -209.888)" fill="#5e9cff"/>
      <path id="パス_42" data-name="パス 42" d="M87.43,384.73a16.855,16.855,0,0,1,.962,3.7c.481,2.318,1.073,5.524,1.615,9.088s.937,6.806,1.122,9.161a16.029,16.029,0,0,1,.086,3.835,20.284,20.284,0,0,1-.654-3.773c-.382-2.626-.851-5.7-1.356-9.1s-.986-6.486-1.381-9.112a18.988,18.988,0,0,1-.395-3.8Z" transform="translate(-47.257 -208.54)" fill="#263238"/>
      <g id="グループ_2" data-name="グループ 2" transform="translate(37.338 169.059)" opacity="0.3">
        <path id="パス_43" data-name="パス 43" d="M91.579,411.923s6.646-20.555-4.809-32.725a.7.7,0,0,0-1.233.345C84.9,382.934,84.02,393.291,91.579,411.923Z" transform="translate(-85.131 -378.946)"/>
      </g>
      <path id="パス_44" data-name="パス 44" d="M119.73,352.612s17.694-12.392,15.906-29a.715.715,0,0,0-1.233-.469C131.876,325.4,125,333.13,119.73,352.612Z" transform="translate(-39.73 -222.944)" fill="#5e9cff"/>
      <g id="グループ_3" data-name="グループ 3" transform="translate(80 99.975)" opacity="0.3">
        <path id="パス_45" data-name="パス 45" d="M119.73,352.612s17.694-12.392,15.906-29a.715.715,0,0,0-1.233-.469C131.876,325.4,125,333.13,119.73,352.612Z" transform="translate(-119.73 -322.92)"/>
      </g>
      <path id="パス_46" data-name="パス 46" d="M132.368,328.46A17.054,17.054,0,0,1,130.9,332c-1.011,2.133-2.466,5.043-4.18,8.212s-3.366,5.993-4.636,7.99a15.72,15.72,0,0,1-2.244,3.107,21.418,21.418,0,0,1,1.751-3.391l4.414-8.089,4.39-8.089a18.766,18.766,0,0,1,1.973-3.28Z" transform="translate(-39.704 -221.653)" fill="#263238"/>
      <path id="パス_47" data-name="パス 47" d="M96.15,392.95s21.332-3.329,27.053-19.038a.715.715,0,0,0-.863-.937C119.011,373.924,109.368,377.809,96.15,392.95Z" transform="translate(-45.225 -211.285)" fill="#5e9cff"/>
      <g id="グループ_4" data-name="グループ 4" transform="translate(50.925 161.663)" opacity="0.3">
        <path id="パス_48" data-name="パス 48" d="M96.15,392.95s21.332-3.329,27.053-19.038a.715.715,0,0,0-.863-.937C119.011,373.924,109.368,377.809,96.15,392.95Z" transform="translate(-96.15 -372.949)"/>
      </g>
      <path id="パス_49" data-name="パス 49" d="M117.572,377.11a18.492,18.492,0,0,1-2.873,2.528c-1.85,1.467-4.451,3.44-7.4,5.536s-5.647,3.9-7.67,5.129a15.832,15.832,0,0,1-3.391,1.8,20.526,20.526,0,0,1,3.083-2.281l7.509-5.314,7.509-5.327A17.876,17.876,0,0,1,117.572,377.11Z" transform="translate(-45.204 -210.316)" fill="#263238"/>
      <path id="パス_50" data-name="パス 50" d="M75.67,421.01,81.8,461.158l24.439-.037,8.237-40.111Z" transform="translate(-49.998 -200.085)" fill="#455a64"/>
      <path id="パス_51" data-name="パス 51" d="M110.357,435.427s0,.062-.21.148a4.766,4.766,0,0,1-.641.37,9.03,9.03,0,0,1-2.725.814,10.05,10.05,0,0,1-4.5-.419,9.457,9.457,0,0,1-4.834-3.514,6.806,6.806,0,0,1-1.134-3.354,3.7,3.7,0,0,1,1.665-3.452,3.958,3.958,0,0,1,4.094.333,6.042,6.042,0,0,1,2.343,3.7,15.905,15.905,0,0,1,.308,4.538,15.387,15.387,0,0,1-1,4.636,10.123,10.123,0,0,1-2.836,4.044,7.83,7.83,0,0,1-4.7,1.961,8.557,8.557,0,0,1-4.932-1.418,14.8,14.8,0,0,1-3.7-3.292,8.1,8.1,0,0,1-1.85-4.414,5.1,5.1,0,0,1,1.739-4.254,3.933,3.933,0,0,1,4.328-.259,4.624,4.624,0,0,1,2.466,3.268,6.264,6.264,0,0,1-3.095,6.35,8.532,8.532,0,0,1-5.894.851,13.058,13.058,0,0,1-4.2-1.64,22.583,22.583,0,0,1-2.355-1.591,4.7,4.7,0,0,1-.752-.641,5.813,5.813,0,0,1,.826.53,25.917,25.917,0,0,0,2.466,1.48,13.909,13.909,0,0,0,4.18,1.492,8.323,8.323,0,0,0,5.6-.9,5.808,5.808,0,0,0,2.787-5.832,4.081,4.081,0,0,0-2.219-2.861,3.366,3.366,0,0,0-3.7.222,4.513,4.513,0,0,0-1.48,3.7,7.4,7.4,0,0,0,1.726,4.044,14.154,14.154,0,0,0,3.49,3.132,7.94,7.94,0,0,0,4.538,1.393,7.287,7.287,0,0,0,4.3-1.8A9.556,9.556,0,0,0,103.119,439a14.537,14.537,0,0,0,.962-4.427,15.388,15.388,0,0,0-.271-4.353,5.4,5.4,0,0,0-2.072-3.342,3.4,3.4,0,0,0-3.49-.345,3.157,3.157,0,0,0-1.418,2.947,6.362,6.362,0,0,0,1.011,3.12,9.125,9.125,0,0,0,4.562,3.415,9.864,9.864,0,0,0,4.34.518A11.3,11.3,0,0,0,110.357,435.427Z" transform="translate(-49.469 -199.015)" fill="#263238"/>
      <path id="パス_52" data-name="パス 52" d="M640.131,355.566A65.82,65.82,0,0,1,702.893,338.3a114.254,114.254,0,0,1-63.453,19.827" transform="translate(81.388 -219.832)" fill="#5e9cff"/>
      <path id="パス_53" data-name="パス 53" d="M657.4,300.757c-2.614-18.5,4.575-39.3,18.422-52.737.456,18.323-7.287,38.952-18.422,52.737" transform="translate(85.45 -240.4)" fill="#5e9cff"/>
      <path id="パス_54" data-name="パス 54" d="M648.353,327.3A98.792,98.792,0,0,1,693.7,284a62.269,62.269,0,0,1-45.524,43.539" transform="translate(83.425 -232.015)" fill="#5e9cff"/>
      <path id="パス_55" data-name="パス 55" d="M646.46,328.34c11.171.308,22.479-.074,33.292-2.935s21.147-8.36,28.36-16.905a111.159,111.159,0,0,0-61.443,18.755" transform="translate(83.024 -226.305)" fill="#5e9cff"/>
      <path id="パス_56" data-name="パス 56" d="M657.119,315.625c-5.672-21.245-15.018-35.943-31.726-47.855a44.168,44.168,0,0,0,31.726,47.855" transform="translate(78.037 -235.797)" fill="#5e9cff"/>
      <path id="パス_57" data-name="パス 57" d="M616.87,341.8a31.443,31.443,0,0,1,19.1-29.125c-.925,10.974-9.544,23.662-19.1,29.125" transform="translate(76.128 -225.331)" fill="#5e9cff"/>
      <path id="パス_58" data-name="パス 58" d="M618.343,329.325a46.856,46.856,0,0,0-30.7-39.975c3.859,17.756,14.118,32.54,30.7,39.975" transform="translate(69.316 -230.768)" fill="#5e9cff"/>
      <path id="パス_59" data-name="パス 59" d="M626.147,350c-3.933-5.635-10.37-9.137-17.016-10.876s-13.564-1.9-20.481-2.047a47.867,47.867,0,0,0,36.992,15.4" transform="translate(69.552 -219.644)" fill="#5e9cff"/>
      <path id="パス_60" data-name="パス 60" d="M637.635,384.732a52.466,52.466,0,0,0-64.045,30.345c23.268-4.414,46.227-14.8,64.045-30.345" transform="translate(66.042 -209.084)" fill="#5e9cff"/>
      <path id="パス_61" data-name="パス 61" d="M646.661,371.53c-3.859,11.418-3.12,25.228,5.475,35.08a41.924,41.924,0,0,0-5.475-35.08" transform="translate(82.551 -211.616)" fill="#5e9cff"/>
      <path id="パス_62" data-name="パス 62" d="M658.48,366.38a42.972,42.972,0,0,0,23.736,34.871,2.627,2.627,0,0,0,2.1.345c1.048-.419,1.147-1.85,1.023-2.972-1.689-14.636-12.528-28.792-26.856-32.244" transform="translate(85.825 -212.816)" fill="#5e9cff"/>
      <path id="パス_63" data-name="パス 63" d="M666.48,365.483a35.228,35.228,0,0,0,51.48.259c-16.363-1.788-35.253-2.984-51.48-.259" transform="translate(87.69 -213.399)" fill="#5e9cff"/>
      <path id="パス_64" data-name="パス 64" d="M677.913,259.07a2.125,2.125,0,0,1-.148.481l-.493,1.381c-.469,1.233-1.134,3.033-1.973,5.3s-1.9,5.117-3.083,8.409c-.592,1.64-1.233,3.391-1.9,5.253l-2.035,5.919c-2.9,8.286-6.165,18.237-9.593,29.31s-7,23.342-10.53,36.264-6.56,25.327-9.186,36.634-4.747,21.541-6.326,30.185c-.407,2.158-.8,4.2-1.159,6.165s-.641,3.785-.937,5.5c-.592,3.44-1.1,6.4-1.443,8.829s-.653,4.279-.863,5.6c-.1.6-.173,1.085-.234,1.443s-.1.493-.1.493a2.466,2.466,0,0,1,0-.493c0-.358.1-.851.173-1.467.173-1.307.432-3.194.74-5.61s.777-5.4,1.344-8.841c.271-1.726.567-3.564.888-5.524s.728-4.007,1.122-6.165c1.529-8.631,3.7-18.89,6.165-30.222s5.672-23.724,9.149-36.671,7.139-25.191,10.58-36.276S664.842,294,667.8,285.679l2.084-5.906c.691-1.85,1.332-3.6,1.948-5.24,1.233-3.28,2.257-6.091,3.169-8.372s1.591-4.02,2.084-5.253l.555-1.369C677.839,259.23,677.9,259.07,677.913,259.07Z" transform="translate(78.699 -237.825)" fill="#263238"/>
      <path id="パス_65" data-name="パス 65" d="M595.56,297s.1.086.284.259l.777.826c.69.727,1.677,1.825,2.91,3.255a114.759,114.759,0,0,1,9.642,12.922,86.483,86.483,0,0,1,10.074,21.554c2.7,8.631,4.377,18.335,6.042,28.533,3.329,20.407,7.4,38.681,10.37,51.9,1.48,6.584,2.688,11.911,3.539,15.647.407,1.825.715,3.255.949,4.266.086.456.173.826.222,1.11a1.755,1.755,0,0,1,.062.382,1.988,1.988,0,0,1-.123-.37c-.074-.284-.173-.641-.283-1.1-.259-1.011-.617-2.466-1.06-4.229-.9-3.7-2.17-9.051-3.7-15.61-3.07-13.194-7.226-31.467-10.555-51.9-1.665-10.2-3.329-19.914-5.98-28.459a86.855,86.855,0,0,0-9.864-21.492,122.176,122.176,0,0,0-9.445-12.922c-1.233-1.467-2.158-2.577-2.811-3.329l-.74-.863a2.065,2.065,0,0,1-.308-.382Z" transform="translate(71.162 -228.985)" fill="#263238"/>
      <path id="パス_66" data-name="パス 66" d="M679.55,364.61a1.909,1.909,0,0,1-.592.111l-1.689.185-1.233.123-1.455.222c-1.036.148-2.22.308-3.514.592l-2.022.407-2.182.543c-1.517.345-3.083.9-4.747,1.406a69.3,69.3,0,0,0-10.358,4.562,58.155,58.155,0,0,0-9.3,6.461,43.24,43.24,0,0,0-3.564,3.415,39.508,39.508,0,0,0-2.824,3.255,34.144,34.144,0,0,0-2.084,2.873,20.268,20.268,0,0,0-1.43,2.281l-.875,1.467a2.256,2.256,0,0,1-.333.493,2.094,2.094,0,0,1,.222-.555l.777-1.529a17.07,17.07,0,0,1,1.344-2.343,30.709,30.709,0,0,1,2.034-2.959,35.385,35.385,0,0,1,2.787-3.342,45.885,45.885,0,0,1,3.563-3.5,57.112,57.112,0,0,1,9.371-6.56,66.881,66.881,0,0,1,10.481-4.575c1.689-.493,3.268-1.023,4.809-1.356l2.195-.518,2.059-.37c1.307-.259,2.466-.382,3.551-.493l1.455-.173h1.233l1.714-.074a2.746,2.746,0,0,1,.6-.049Z" transform="translate(79.503 -213.229)" fill="#263238"/>
      <path id="パス_67" data-name="パス 67" d="M680.282,297.36a9.362,9.362,0,0,1-1.233,1.134l-3.366,2.922c-2.861,2.466-6.843,5.783-11.258,9.457s-8.459,6.954-11.393,9.322l-3.49,2.762a8.633,8.633,0,0,1-1.332.949,7.776,7.776,0,0,1,1.233-1.134l3.379-2.922c2.861-2.466,6.843-5.8,11.258-9.458s8.446-6.954,11.381-9.322l3.5-2.762A7.929,7.929,0,0,1,680.282,297.36Z" transform="translate(83.432 -228.901)" fill="#263238"/>
      <path id="パス_68" data-name="パス 68" d="M684.768,314.911c0,.173-8.545,2.861-19.186,6s-19.322,5.561-19.371,5.388,8.545-2.848,19.2-5.993S684.718,314.751,684.768,314.911Z" transform="translate(82.966 -224.813)" fill="#263238"/>
      <path id="パス_69" data-name="パス 69" d="M656.159,313.714a7.393,7.393,0,0,1-.888-1.233L653,309.028c-1.911-2.9-4.649-6.868-7.867-11.1s-6.338-7.9-8.631-10.53c-1.085-1.233-2-2.269-2.713-3.107a6.646,6.646,0,0,1-.962-1.233,7.088,7.088,0,0,1,1.134,1.023c.7.678,1.677,1.7,2.873,2.972,2.38,2.565,5.549,6.165,8.792,10.444s5.919,8.261,7.756,11.233c.912,1.492,1.628,2.713,2.1,3.564a7.636,7.636,0,0,1,.678,1.418Z" transform="translate(79.848 -232.234)" fill="#263238"/>
      <path id="パス_70" data-name="パス 70" d="M630.009,317.67a30.23,30.23,0,0,1-2.022,3.317c-1.233,2.01-3.021,4.821-4.821,7.99s-3.329,6.165-4.4,8.237A28.71,28.71,0,0,1,617,340.642a20.953,20.953,0,0,1,1.418-3.625c.986-2.182,2.466-5.167,4.266-8.348s3.613-5.968,5.006-7.928a21.013,21.013,0,0,1,2.318-3.07Z" transform="translate(76.158 -224.168)" fill="#263238"/>
      <path id="パス_71" data-name="パス 71" d="M625.061,350.03a47.647,47.647,0,0,1-4.365-1.924c-2.688-1.233-6.437-2.787-10.666-4.266s-8.15-2.589-11-3.317a46.891,46.891,0,0,1-4.612-1.233,5.727,5.727,0,0,1,1.233.136c.826.123,2,.345,3.44.653a96,96,0,0,1,21.751,7.62c1.319.653,2.38,1.233,3.095,1.628a5.478,5.478,0,0,1,1.122.7Z" transform="translate(70.896 -219.129)" fill="#263238"/>
      <path id="パス_72" data-name="パス 72" d="M635.317,384.35a1.687,1.687,0,0,1-.53.173l-1.554.395-5.709,1.319a190.108,190.108,0,0,0-18.668,4.932,82.389,82.389,0,0,0-17.411,8.187c-2.084,1.319-3.7,2.466-4.809,3.329a16.9,16.9,0,0,1-1.726,1.233,2.737,2.737,0,0,1,.382-.407c.271-.247.654-.617,1.233-1.06a53.618,53.618,0,0,1,4.71-3.527,76.448,76.448,0,0,1,17.448-8.4,156.05,156.05,0,0,1,18.779-4.772l5.758-1.122A14.359,14.359,0,0,1,635.317,384.35Z" transform="translate(68.68 -208.628)" fill="#263238"/>
      <path id="パス_73" data-name="パス 73" d="M650.11,398.408c-.173,0-1.233-6-2.281-13.465s-1.837-13.564-1.665-13.564,1.233,6,2.281,13.465S650.283,398.384,650.11,398.408Z" transform="translate(82.95 -211.651)" fill="#263238"/>
      <path id="パス_74" data-name="パス 74" d="M677.41,388.569a33.291,33.291,0,0,1-2.725-3.243c-1.64-2.034-3.9-4.846-6.461-7.891s-4.932-5.758-6.658-7.719a31.2,31.2,0,0,1-2.725-3.255,4.1,4.1,0,0,1,.863.752c.53.506,1.233,1.233,2.183,2.195,1.813,1.887,4.242,4.575,6.819,7.633s4.784,5.906,6.338,8.015c.764,1.06,1.381,1.924,1.788,2.466a3.814,3.814,0,0,1,.58,1.048Z" transform="translate(85.909 -212.797)" fill="#263238"/>
      <path id="パス_75" data-name="パス 75" d="M608.95,407.15v14.957H612.7l13.28,41.948h29.482l12.873-41.541,4.982-.407V407.15Z" transform="translate(74.283 -203.315)" fill="#263238"/>
      <path id="パス_76" data-name="パス 76" d="M670.116,419.668c0,.173-13.009.321-29.063.321s-29.063-.148-29.063-.321,13.009-.308,29.063-.308S670.116,419.5,670.116,419.668Z" transform="translate(74.991 -200.469)" fill="#455a64"/>
      <path id="パス_77" data-name="パス 77" d="M685.209,341.61a12.584,12.584,0,0,1-1.9.506l-5.167,1.233c-4.365,1.085-10.345,2.725-16.843,4.932s-12.256,4.5-16.387,6.276l-4.871,2.133a12.088,12.088,0,0,1-1.813.727,11.379,11.379,0,0,1,1.7-.949c1.122-.58,2.762-1.381,4.809-2.318a171.079,171.079,0,0,1,33.292-11.208c2.195-.481,3.983-.838,5.216-1.048A10.1,10.1,0,0,1,685.209,341.61Z" transform="translate(81.106 -218.589)" fill="#263238"/>
      <path id="パス_78" data-name="パス 78" d="M658.909,438.571c0,.173-9.137.308-20.395.308s-20.395-.136-20.395-.308,9.125-.321,20.395-.321S658.909,438.4,658.909,438.571Z" transform="translate(76.42 -196.067)" fill="#fafafa"/>
      <path id="パス_79" data-name="パス 79" d="M660.3,435.748c0,.173-9.679.321-21.615.321s-21.615-.148-21.615-.321,9.679-.308,21.615-.308S660.3,435.576,660.3,435.748Z" transform="translate(76.175 -196.722)" fill="#fafafa"/>
    </g>
    <g id="freepik--Device--inject-100" transform="translate(193.444 105.031)">
      <path id="パス_80" data-name="パス 80" d="M684.88,93.27H182.721A15.672,15.672,0,0,0,167,108.967v354.7a15.672,15.672,0,0,0,15.672,15.672H375.459s12.257,37.916-25.746,57.5H529.935s-42.91-14.71-31.874-57.522H684.88a15.672,15.672,0,0,0,15.672-15.672V108.967a15.672,15.672,0,0,0-15.672-15.7Z" transform="translate(-167 -93.27)" fill="#455a64"/>
      <path id="パス_81" data-name="パス 81" d="M391.972,376.675c6.831,9.766-3.872,20.456-13.637,13.625a3.613,3.613,0,0,1-.838-.839c-6.806-9.753,3.872-20.432,13.625-13.625A3.7,3.7,0,0,1,391.972,376.675Z" transform="translate(-118.445 -27.919)" fill="#263238"/>
      <path id="パス_82" data-name="パス 82" d="M185.681,98.58H678.025a11.96,11.96,0,0,1,11.961,11.961V413.254H173.72V110.541A11.961,11.961,0,0,1,185.681,98.58Z" transform="translate(-165.434 -92.032)" fill="#fff"/>
      <path id="パス_83" data-name="パス 83" d="M185.344,98.54h495.3a9.273,9.273,0,0,1,9.273,9.273v16.88H174V109.835A11.282,11.282,0,0,1,185.344,98.54Z" transform="translate(-165.369 -92.042)" fill="#ebebeb"/>
      <path id="パス_84" data-name="パス 84" d="M191.69,110.275a3.625,3.625,0,1,1-3.625-3.625A3.625,3.625,0,0,1,191.69,110.275Z" transform="translate(-162.936 -90.152)" fill="#263238"/>
      <path id="パス_85" data-name="パス 85" d="M200.46,110.275a3.625,3.625,0,1,1-3.625-3.625A3.625,3.625,0,0,1,200.46,110.275Z" transform="translate(-160.892 -90.152)" fill="#263238"/>
      <path id="パス_86" data-name="パス 86" d="M208.8,110.275a3.625,3.625,0,1,1-3.625-3.625,3.625,3.625,0,0,1,3.625,3.625Z" transform="translate(-158.948 -90.152)" fill="#263238"/>
      <path id="パス_87" data-name="パス 87" d="M574.539,406.468c0,.16-71.517.3-159.594.3s-159.606-.136-159.606-.3,71.443-.308,159.606-.308S574.539,406.3,574.539,406.468Z" transform="translate(-146.412 -20.351)" fill="#263238"/>
      <path id="パス_88" data-name="パス 88" d="M544.5,263.556c5.968-3.083,13-3.477,19.618-2.392,3.551.592,7.263,1.652,9.692,4.328s2.873,7.4.1,9.679a9.371,9.371,0,0,1-6.165,1.541c-5.179-.062-10.937-.974-15.08,2.146-2.355,1.788-3.934,4.747-6.757,5.61a6.658,6.658,0,0,1-7.4-3.268,11.368,11.368,0,0,1-.826-8.422,12.836,12.836,0,0,1,6.819-9.223Z" transform="translate(-80.718 -54.27)" fill="#ebebeb"/>
      <path id="パス_89" data-name="パス 89" d="M532.691,251.78c3.7,5.216,10.74,3.49,14.02.308s4.686-7.793,5.943-12.183c2.9-10.037,5.808-20.58,3.7-30.826a17.127,17.127,0,0,0-3.933-8.372,8.977,8.977,0,0,0-8.471-2.824c-3.576.949-5.808,4.451-7.4,7.781a73.552,73.552,0,0,0-7.25,31.5c0,5.08.58,10.395,3.44,14.587" transform="translate(-82.566 -68.931)" fill="#ebebeb"/>
      <path id="パス_90" data-name="パス 90" d="M531.869,256.083c3.958-4.7,4.71-11.554,2.947-17.435s-5.746-10.9-10.333-14.994a55.807,55.807,0,0,0-18.5-10.913,19.963,19.963,0,0,0-8.323-1.418,8.73,8.73,0,0,0-6.979,4.229c-1.948,3.7-.086,8.212,1.936,11.887a139.491,139.491,0,0,0,12.146,18.5c3.7,4.7,7.818,9.334,13.366,11.455s11.319,1.874,14.266-1.985" transform="translate(-91.757 -65.762)" fill="#ebebeb"/>
      <path id="パス_91" data-name="パス 91" d="M531.864,314.344a10.383,10.383,0,0,0,.333-2.367c.173-1.714.382-3.884.629-6.461a89.792,89.792,0,0,1,1.455-9.47,72.559,72.559,0,0,1,3.44-11.184,41.494,41.494,0,0,1,5.709-10.123,21.394,21.394,0,0,1,7.226-6,20.21,20.21,0,0,1,6.079-1.887,11.1,11.1,0,0,0,2.355-.345,12.084,12.084,0,0,0-2.4,0,18.667,18.667,0,0,0-6.338,1.652,21.236,21.236,0,0,0-7.608,6.054,40.162,40.162,0,0,0-5.919,10.321,69.221,69.221,0,0,0-3.428,11.369,79.559,79.559,0,0,0-1.233,9.593c-.21,2.75-.284,4.932-.321,6.5A11.263,11.263,0,0,0,531.864,314.344Z" transform="translate(-81.986 -52.913)" fill="#e0e0e0"/>
      <path id="パス_92" data-name="パス 92" d="M532.324,321.442a4.025,4.025,0,0,0,0-1.1V317.2c0-2.725,0-6.671.136-11.541.247-9.741,1.085-20.222,2.7-35.006,1.529-13.9,3.588-30.074,5.771-40.592.456-2.392.937-4.538,1.369-6.424s.789-3.527,1.134-4.834.542-2.256.728-3.058a4.409,4.409,0,0,0,.2-1.085,4.445,4.445,0,0,0-.382,1.036c-.234.789-.542,1.776-.912,3.009s-.814,2.922-1.295,4.8-1.011,4.032-1.517,6.412a358.64,358.64,0,0,0-6.066,37.67c-1.615,14.8-2.355,28.3-2.466,38.064,0,4.932,0,8.841.173,11.566.074,1.233.136,2.318.185,3.144a5.844,5.844,0,0,0,.247,1.085Z" transform="translate(-82.002 -64.98)" fill="#e0e0e0"/>
      <path id="パス_93" data-name="パス 93" d="M538.834,293.934a23.234,23.234,0,0,0,0-3.292c-.123-2.108-.419-5.154-1.011-8.89a117.313,117.313,0,0,0-2.885-12.947,106.734,106.734,0,0,0-5.425-15.327,81.589,81.589,0,0,0-15.894-24.76,40.421,40.421,0,0,0-3.7-3.477c-.567-.493-1.085-.974-1.591-1.356l-1.455-1a22.85,22.85,0,0,0-2.762-1.776c-.16.222,3.909,2.614,9.051,8.076a86.384,86.384,0,0,1,15.512,24.661,120.694,120.694,0,0,1,5.364,15.216,129.852,129.852,0,0,1,3.083,12.824c.678,3.7,1.073,6.708,1.307,8.8A20.112,20.112,0,0,0,538.834,293.934Z" transform="translate(-88.438 -63.477)" fill="#e0e0e0"/>
      <path id="パス_94" data-name="パス 94" d="M511.87,317.38l2.614,35.709h45.869l2.614-35.709Z" transform="translate(-86.629 -41.041)" fill="#e0e0e0"/>
      <rect id="長方形_2" data-name="長方形 2" width="60.999" height="14.081" transform="translate(420.815 262.257)" fill="#e0e0e0"/>
      <path id="パス_95" data-name="パス 95" d="M508.28,345.23v3.909h59.988V345.23Z" transform="translate(-87.465 -34.551)" fill="#ebebeb"/>
      <path id="パス_96" data-name="パス 96" d="M513.409,355.268l-2.8-6.868h54.932l-3.28,6.868Z" transform="translate(-86.922 -33.812)" fill="#e0e0e0"/>
      <path id="パス_97" data-name="パス 97" d="M561.965,327.781s0,.123-.222.333a7.611,7.611,0,0,0-.678.913l-2.676,3.415-.123.148-.111-.148-6.56-9.088h.37L545.5,332.5l-.2.3-.234-.271L537.4,323.4h.444l-.419.53-6.856,8.631-.222.284-.222-.3-6.461-9.162h.37l-7.966,9.075-.136.16-.111-.185-2.466-4.192-.641-1.11a2.892,2.892,0,0,1-.2-.395,2.627,2.627,0,0,1,.271.345l.7,1.073c.641,1.011,1.517,2.392,2.626,4.118h-.259l7.842-9.174.2-.234.185.247c1.973,2.774,4.168,5.832,6.523,9.112h-.444l6.843-8.631.419-.53.222-.271.222.259,7.645,9.149h-.432l6.535-9.112.185-.259.185.259,6.424,9.186h-.222l2.774-3.329.74-.863a1.6,1.6,0,0,1,.259-.308Z" transform="translate(-86.477 -39.778)" fill="#f5f5f5"/>
      <path id="パス_98" data-name="パス 98" d="M563.536,317.234c0,.16-11.5.284-25.672.284s-25.685-.123-25.685-.284S523.672,317,537.852,317,563.536,317.074,563.536,317.234Z" transform="translate(-86.556 -41.13)" fill="#f5f5f5"/>
      <path id="パス_99" data-name="パス 99" d="M566.258,348.764c0,.16-12.5.284-27.9.284s-27.9-.123-27.9-.284,12.491-.284,27.9-.284S566.258,348.6,566.258,348.764Z" transform="translate(-86.959 -33.794)" fill="#f5f5f5"/>
    </g>
    <g id="freepik--Character--inject-100" transform="translate(245.318 71.417)">
      <path id="パス_100" data-name="パス 100" d="M451.539,214.128q-1.961-32.824-6.424-65.45c-1.788-13.083-3.909-26.227-8.422-38.644s-11.6-24.143-21.9-32.343S390.75,65.188,378,68.036l52.047,160.642c3.884.518,7.842,1.023,11.677.259s7.6-3.046,9.112-6.683A18.214,18.214,0,0,0,451.539,214.128Z" transform="translate(-169.701 -65.741)" fill="#263238"/>
      <path id="パス_101" data-name="パス 101" d="M371.389,72.369c-9.975-.777-22.072,3.046-27.744,11.344-4.4,6.449-3.354,17.694-4.932,25.376-2.466,12.33-4.858,24.661-5.166,37.226-.333,13.785,1.887,27.485,4.118,41.085q3.7,22.565,7.4,45.117c1.1,6.683,2.232,13.564,5.376,19.507s8.718,11.1,15.413,11.887c6.165.715,12.257-2.38,16.375-7s6.424-10.6,7.854-16.646Z" transform="translate(-180.069 -64.55)" fill="#263238"/>
      <path id="パス_102" data-name="パス 102" d="M375.683,187.16c-2.984-.148-22.873,4.624-22.873,4.624l23.144,90.629,37.053,3L445.893,182.24Z" transform="translate(-175.572 -38.921)" fill="#aa6550"/>
      <path id="パス_103" data-name="パス 103" d="M414.482,248.36a38.558,38.558,0,0,1-20.851,13.181,23.12,23.12,0,0,1-13.748-.395c-4.34-1.689-8.015-5.586-8.557-10.247L365,270.111l11.233,56.017,18.237,52.244,35.7-.21Z" transform="translate(-172.731 -23.512)" fill="#263238"/>
      <path id="パス_104" data-name="パス 104" d="M298.8,273.94l15.943-19.273s15.4-50.271,20.025-54.032,46.856-14.365,46.856-14.365l15.055,64.945,7.657,79.926,14.044,31.739,13.786,29.852-48.4.136s-19.729-44.55-30.185-70.456a90.983,90.983,0,0,1-6.276-26.338l-.518-6.165s-31.48,72.836-38.9,77.522S291.207,379.168,281,378.737s-31.2-30.765-31.2-30.765l-.111-40.518,29.667-12.4,5.142,11.208Z" transform="translate(-199.604 -37.982)" fill="#5e9cff"/>
      <path id="パス_105" data-name="パス 105" d="M393.08,360.687l3.231-7.953,68.508-32.207L462.7,225.15l18.249-38.89s10.358,4.525,16.35,17.892c4.229,9.4,16.424,142.429,9.519,146.585-9.026,5.364-69.643,29.458-89.914,37.423a8.187,8.187,0,0,1-10.111-3.576Z" transform="translate(-166.187 -37.984)" fill="#5e9cff"/>
      <path id="パス_106" data-name="パス 106" d="M473.005,353.21l7.756-164.353-38.619-7.115-11.1-8h-8.779s3.231,8.36,2.8,15.253S392.82,319.005,392.82,319.005l18.064,76.622,81.665-.247Z" transform="translate(-166.247 -40.902)" fill="#5e9cff"/>
      <path id="パス_107" data-name="パス 107" d="M439.886,180.2v.925c0,.654.111,1.554.185,2.7.148,2.367.308,5.845.407,10.247.21,8.829-.148,21.43-.875,36.461v.247h-.259l-14.538.814.234-.469a38.989,38.989,0,0,0,13.428,12.947l.247.148-.111.259L432.8,257.327c-5.549,12.33-10.7,24.131-14.871,35.068a292.2,292.2,0,0,0-9.729,29.519c-2.293,8.545-3.613,15.6-4.476,20.469-.37,2.466-.666,4.316-.875,5.635-.1.616-.173,1.11-.234,1.467a2.2,2.2,0,0,1-.1.493,2.593,2.593,0,0,1,0-.506c0-.358.1-.851.173-1.467.173-1.233.382-3.206.752-5.66.789-4.932,2.047-11.961,4.279-20.555a286.908,286.908,0,0,1,9.618-29.593c4.143-10.974,9.3-22.787,14.8-35.13l5.82-12.848.123.407a39.459,39.459,0,0,1-13.564-13.144l-.271-.432h.505l14.55-.764-.271.259c.789-15.019,1.233-27.6,1.11-36.412,0-4.414-.16-7.879-.247-10.247,0-1.159-.074-2.059-.111-2.7v-.7A.714.714,0,0,1,439.886,180.2Z" transform="translate(-163.991 -39.397)" fill="#263238"/>
      <path id="パス_108" data-name="パス 108" d="M408.126,382.185l-.53-.247-1.541-.764c-1.356-.641-3.28-1.751-5.746-3.218-1.233-.789-2.54-1.64-3.958-2.639s-2.959-2.121-4.5-3.44a89.468,89.468,0,0,1-10.037-9.494,113.862,113.862,0,0,1-19.556-30.025,168.769,168.769,0,0,1-12.244-42.17c-1.628-9.79-2.577-19.384-3.243-28.508-.333-4.538-.53-9.112.666-13.354s3.847-8,7.707-9.642l-.074.469a11.406,11.406,0,0,0-10.752-2.219l-.345.123v-.37c.456-14.168.826-25.894,1.085-33.983.148-4.032.271-7.2.345-9.4,0-1.048.086-1.874.111-2.466s.062-.851.062-.851v3.317c0,2.183-.123,5.351-.21,9.4-.21,8.15-.506,19.815-.863,33.983l-.345-.259a11.936,11.936,0,0,1,11.282,2.281l.333.3-.407.185c-3.7,1.554-6.227,5.228-7.4,9.285s-.949,8.631-.617,13.157c.678,9.112,1.628,18.681,3.268,28.446a169.031,169.031,0,0,0,12.146,42.035,114.75,114.75,0,0,0,19.347,29.963,91.693,91.693,0,0,0,9.926,9.507c1.529,1.332,3.083,2.466,4.451,3.465s2.75,1.874,3.921,2.688c2.466,1.492,4.328,2.639,5.672,3.317l1.5.814Z" transform="translate(-177.632 -37.115)" fill="#263238"/>
      <path id="パス_109" data-name="パス 109" d="M461.931,229.82a1.778,1.778,0,0,1,0,.382v1.122c.062,1.023.136,2.466.247,4.4.185,3.859.456,9.494.8,16.634.666,14.328,1.591,34.723,2.713,59.014v.2l-.173.074-63.465,28.138-6.1,2.7.173-.173c-.444,1.11-.888,2.182-1.332,3.268v-.247c4.5,10.912,8.829,21.455,12.9,31.332l-.123-.148a13.416,13.416,0,0,0,5.29,1.788,5.4,5.4,0,0,0,1.344-.074,7.247,7.247,0,0,0,1.233-.432l2.639-1,10.271-3.933,19.125-7.4c12.072-4.71,22.713-8.952,31.5-12.552s15.746-6.572,20.444-8.767c2.343-1.1,4.131-1.985,5.29-2.676a7.708,7.708,0,0,0,1.233-.875.961.961,0,0,0,.3-.407.7.7,0,0,1-.259.456,7.565,7.565,0,0,1-1.233.913,57.766,57.766,0,0,1-5.265,2.787c-4.673,2.244-11.6,5.277-20.382,8.927s-19.4,7.929-31.455,12.688l-19.112,7.4-10.271,3.958-2.626,1.011a8.781,8.781,0,0,1-1.393.456,6.163,6.163,0,0,1-1.5.086,14.018,14.018,0,0,1-5.573-1.862h-.086v-.1c-4.081-9.864-8.422-20.407-12.922-31.319v-.247c.444-1.073.875-2.158,1.332-3.268v-.111l.111-.062,6.165-2.7,63.6-28.1-.173.271c-1.011-24.3-1.862-44.686-2.466-59.026-.284-7.139-.506-12.774-.654-16.646q-.1-2.873-.148-4.4v-1.122Z" transform="translate(-165.937 -27.833)" fill="#263238"/>
      <path id="パス_110" data-name="パス 110" d="M465.915,190.05c.086.074-1.369,1.726-3.4,4.612a64.89,64.89,0,0,0-6.683,12.047,63.824,63.824,0,0,0-3.909,13.206c-.641,3.477-.8,5.672-.913,5.66a7.9,7.9,0,0,1,0-1.554,41.783,41.783,0,0,1,.444-4.192A56.843,56.843,0,0,1,462.1,194.39a40.416,40.416,0,0,1,2.676-3.243,7.854,7.854,0,0,1,1.134-1.1Z" transform="translate(-152.696 -37.101)" fill="#263238"/>
      <path id="パス_111" data-name="パス 111" d="M332.606,239.148a8.375,8.375,0,0,1-.308-1.689c-.136-1.085-.382-2.663-.74-4.587a86.191,86.191,0,0,0-10.666-28.594c-1-1.689-1.85-3.046-2.466-3.958a9.193,9.193,0,0,1-.875-1.48,9.382,9.382,0,0,1,1.085,1.332c.666.876,1.578,2.195,2.626,3.872A76.043,76.043,0,0,1,331.989,232.8c.3,1.948.481,3.539.543,4.636A7.84,7.84,0,0,1,332.606,239.148Z" transform="translate(-183.789 -35.053)" fill="#263238"/>
      <path id="パス_112" data-name="パス 112" d="M383.762,261.545a18.348,18.348,0,0,1-.333-4.834,17.733,17.733,0,0,1,.308-4.821,36.5,36.5,0,0,1,0,9.655Z" transform="translate(-168.447 -22.689)" fill="#754034"/>
      <g id="グループ_5" data-name="グループ 5" transform="translate(238.768 151.087)" opacity="0.3">
        <path id="パス_113" data-name="パス 113" d="M433.4,231.61l10.851,1.455c-2.331-5.968-2-38.225-3.884-44.525l-1,40.025-14.538.777s6.252,8.4,9.174,10.16a35.9,35.9,0,0,1,4.254,2.873s-20.567,48.089-23.773,56.375c-6.819,17.645-11.776,47.324-11.776,47.324,17.053-29.593,26.954-63.835,35.894-96.893a19.285,19.285,0,0,0,.986-7.867C438.986,237.467,436.126,234.409,433.4,231.61Z" transform="translate(-402.71 -188.54)"/>
      </g>
      <g id="グループ_6" data-name="グループ 6" transform="translate(163.546 185.744)" opacity="0.3">
        <path id="パス_114" data-name="パス 114" d="M344.855,230.51c-.2.592.16-13.564.247-13.859s-1.85,16.979-2.195,18l5.956-1.307a11.775,11.775,0,0,0-6.1,7.4,31.061,31.061,0,0,0-1,9.864c.395,24.772,5.771,50.21,19.088,71.048-8.705-20.728-11.381-43.44-13.49-65.857-.407-4.4-.752-8.792.481-13.046s4.057-8.779,7.929-10.222c-2.984-2.466-7.176-3.7-10.913-2.022" transform="translate(-341.706 -216.647)"/>
      </g>
      <g id="グループ_7" data-name="グループ 7" transform="translate(243.317 325.687)" opacity="0.3">
        <path id="パス_115" data-name="パス 115" d="M406.4,354.332c1.566,3.317,7.275,3.083,11.258,2.639a46.856,46.856,0,0,0,11.492-3.341c16.572-6.387,32.6-12.133,49.174-18.5l-2.306-4.994-63.946,24.871A6.757,6.757,0,0,1,406.4,354.332Z" transform="translate(-406.4 -330.14)"/>
      </g>
      <path id="パス_116" data-name="パス 116" d="M272.863,219.8c-3.157-.271-12.515,2.466-14.969,6.819l-5.154,17.263s11.591-11.936,16.93-13.859c8.36-3.009,12.232-3.07,8.631-7.571A7.1,7.1,0,0,0,272.863,219.8Z" transform="translate(-198.893 -30.171)" fill="#aa6550"/>
      <path id="パス_117" data-name="パス 117" d="M229.51,232.252l5.623,12.959.222,23.551,28.027-4.131-4.032-22.565,2.762-9.914L250.558,222.4Z" transform="translate(-204.306 -29.562)" fill="#aa6550"/>
      <rect id="長方形_3" data-name="長方形 3" width="146.881" height="100.851" transform="translate(0.252 223.674) rotate(-0.17)" fill="#fafafa"/>
      <path id="パス_118" data-name="パス 118" d="M356.469,347.982v-7.176c0-4.673-.062-11.529-.123-20.3-.074-17.534-.2-42.713-.345-73.366l.259.259-146.868.481h0l.321-.321c.086,36,.185,70.21.259,100.851l-.3-.3,105.845-.16h38.323l-7.978.062-30.148.16-106.042.456h-.284v-.3c-.1-30.641-.21-64.846-.321-100.851v-.321h.333l146.868-.358h.259v.259c0,30.715.062,55.943.074,73.527V346.12A10.158,10.158,0,0,1,356.469,347.982Z" transform="translate(-209.07 -23.873)" fill="#263238"/>
      <path id="パス_119" data-name="パス 119" d="M218.5,334.889c-.173,0-.37-17.115-.432-38.225s0-38.225.222-38.225.37,17.1.432,38.225S218.681,334.889,218.5,334.889Z" transform="translate(-206.979 -21.163)" fill="#263238"/>
      <path id="パス_120" data-name="パス 120" d="M345.956,311.635c0,.185-28.644.407-63.983.506s-63.983,0-63.983-.136,28.644-.407,63.983-.506S345.956,311.462,345.956,311.635Z" transform="translate(-206.991 -8.809)" fill="#ebebeb"/>
      <path id="パス_121" data-name="パス 121" d="M345.916,302.545c0,.173-28.644.407-63.971.506s-63.946.1-63.946-.136,28.631-.407,63.983-.506S345.916,302.372,345.916,302.545Z" transform="translate(-206.989 -10.927)" fill="#ebebeb"/>
      <path id="パス_122" data-name="パス 122" d="M345.893,293.455c0,.173-28.644.407-63.971.506s-63.983,0-63.983-.136,28.644-.407,63.983-.506S345.893,293.27,345.893,293.455Z" transform="translate(-207.003 -13.046)" fill="#ebebeb"/>
      <path id="パス_123" data-name="パス 123" d="M345.876,284.365c0,.173-28.644.395-63.983.506s-63.983,0-63.983-.148,28.644-.395,63.983-.493S345.876,284.18,345.876,284.365Z" transform="translate(-207.01 -15.164)" fill="#ebebeb"/>
      <path id="パス_124" data-name="パス 124" d="M345.843,275.266c0,.185-28.644.407-63.971.506s-63.983,0-63.983-.136,28.631-.395,63.983-.506S345.843,275.093,345.843,275.266Z" transform="translate(-207.014 -17.286)" fill="#ebebeb"/>
      <path id="パス_125" data-name="パス 125" d="M345.826,266.175c0,.185-28.656.407-63.983.506s-63.983,0-63.983-.136,28.644-.407,63.983-.506S345.826,266,345.826,266.175Z" transform="translate(-207.021 -19.403)" fill="#ebebeb"/>
      <path id="パス_126" data-name="パス 126" d="M345.793,257.085c0,.173-28.644.407-63.971.506s-63.983,0-63.983-.136,28.631-.407,63.971-.506S345.793,256.912,345.793,257.085Z" transform="translate(-207.026 -21.521)" fill="#ebebeb"/>
      <rect id="長方形_4" data-name="長方形 4" width="9.174" height="17.472" transform="translate(19.679 296.207) rotate(-0.17)" fill="#5e9cff"/>
      <rect id="長方形_5" data-name="長方形 5" width="9.174" height="17.472" transform="matrix(1, -0.003, 0.003, 1, 86.244, 296.058)" fill="#5e9cff"/>
      <rect id="長方形_6" data-name="長方形 6" width="9.174" height="30.321" transform="translate(37.631 283.292) rotate(-0.17)" fill="#5e9cff"/>
      <rect id="長方形_7" data-name="長方形 7" width="9.174" height="38.212" transform="matrix(1, -0.003, 0.003, 1, 71.168, 275.373)" fill="#5e9cff"/>
      <rect id="長方形_8" data-name="長方形 8" width="9.174" height="61.418" transform="matrix(1, -0.003, 0.003, 1, 54.507, 252.201)" fill="#5e9cff"/>
      <rect id="長方形_9" data-name="長方形 9" width="9.174" height="50.062" transform="matrix(1, -0.003, 0.003, 1, 103.934, 263.432)" fill="#5e9cff"/>
      <path id="パス_127" data-name="パス 127" d="M331.066,320.21c0,.185-25.179.395-56.227.481s-56.239,0-56.239-.148,25.167-.395,56.239-.493S331.066,320,331.066,320.21Z" transform="translate(-206.849 -6.816)" fill="#263238"/>
      <path id="パス_128" data-name="パス 128" d="M263.353,264.875,260.5,270.9l-3.416-6.017-.259-59.815,6.264-.012Z" transform="translate(-197.94 -33.603)" fill="#263238"/>
      <path id="パス_129" data-name="パス 129" d="M267.5,206.181s-2.7-5.413-5.684-5.4-7.46,5.438-7.46,5.438-6.88-3.588-9.273-2.688-5.956,6.942-5.956,6.942a17.657,17.657,0,0,0-5.265,2.725c-1.591,1.5-1.874,6.326-1.874,6.326s-4.18.6-4.18,3.021,0,12.331,2.133,14.735,13.785,11.393,17.818,11.1,4.007-6.03,3.107-7.226c0,0,4.8,3.6,7.176.284s1.171-8.126,1.171-8.126,1.837,5.721,5.549,3.181c4.3-2.935.617-9.063.617-9.063s3.095,4.932,4.932,2.54,1.233-6.326,0-9.026S267.5,206.181,267.5,206.181Z" transform="translate(-204.703 -34.601)" fill="#aa6550"/>
      <path id="パス_130" data-name="パス 130" d="M245.471,234a9.541,9.541,0,0,1-1.862-1.813,50.923,50.923,0,0,1-7.065-10.308,9.471,9.471,0,0,1-1.023-2.392c.173-.086,2.022,3.4,4.772,7.4S245.606,233.868,245.471,234Z" transform="translate(-202.906 -30.24)" fill="#754034"/>
      <path id="パス_131" data-name="パス 131" d="M255.665,229.99a87.284,87.284,0,0,1-6.523-8.335A88.507,88.507,0,0,1,243.1,212.9a88.778,88.778,0,0,1,6.56,8.372,89.321,89.321,0,0,1,6,8.718Z" transform="translate(-201.139 -31.776)" fill="#754034"/>
      <path id="パス_132" data-name="パス 132" d="M260.544,226a13.956,13.956,0,0,1-1.6-2.577l-3.6-6.375L251.7,210.69a14.873,14.873,0,0,1-1.393-2.7,13.1,13.1,0,0,1,1.788,2.466c1.023,1.566,2.38,3.785,3.8,6.276s2.614,4.8,3.44,6.473A14.282,14.282,0,0,1,260.544,226Z" transform="translate(-199.459 -32.92)" fill="#754034"/>
      <path id="パス_133" data-name="パス 133" d="M257.751,226.67a1.484,1.484,0,0,1,.259.3,4.009,4.009,0,0,1,.543.986,6.609,6.609,0,0,1-1.233,6.757,5.08,5.08,0,0,1-3.033,1.652,6.8,6.8,0,0,1-3.785-.765,10.469,10.469,0,0,1-3.292-2.552l.444-.432a8.632,8.632,0,0,1,2.836,4.414,4.933,4.933,0,0,1-.185,2.663,3.7,3.7,0,0,1-1.714,2,6.806,6.806,0,0,1-4.772.173,22.849,22.849,0,0,1-7.226-3.292,22.2,22.2,0,0,1-4.02-3.527c-.407-.481-.715-.863-.912-1.134s-.284-.419-.259-.432a31.06,31.06,0,0,0,5.438,4.723,23.428,23.428,0,0,0,7.115,3.095,6.325,6.325,0,0,0,4.34-.16,3.613,3.613,0,0,0,1.566-3.983,8.187,8.187,0,0,0-2.626-4.081l.444-.432c1.776,2.022,4.279,3.4,6.535,3.169a4.488,4.488,0,0,0,2.75-1.43,6.165,6.165,0,0,0,1.393-2.392,6.522,6.522,0,0,0,0-3.958C258.035,227.077,257.7,226.707,257.751,226.67Z" transform="translate(-203.867 -28.567)" fill="#754034"/>
      <path id="パス_134" data-name="パス 134" d="M258.61,220.64a7.484,7.484,0,0,1,1.443,2.466,13,13,0,0,1,.863,3.058,8.531,8.531,0,0,1-.567,3.884,4.007,4.007,0,0,1-2.861,2.725,3.391,3.391,0,0,1-2.972-1.233,7.127,7.127,0,0,1-1.073-1.862c-.185-.456-.259-.727-.222-.74s.185.21.444.629a9.338,9.338,0,0,0,1.233,1.665,3.009,3.009,0,0,0,2.54,1.023,3.539,3.539,0,0,0,2.367-2.38,8.557,8.557,0,0,0,.567-3.6,14.01,14.01,0,0,0-.691-2.947C259.116,221.651,258.512,220.689,258.61,220.64Z" transform="translate(-198.783 -29.972)" fill="#754034"/>
      <path id="パス_135" data-name="パス 135" d="M253.1,238.39a29.781,29.781,0,0,1-5.2,3.4,29.223,29.223,0,0,1-5.524,2.836,31.444,31.444,0,0,1,5.2-3.391,30.716,30.716,0,0,1,5.524-2.848Z" transform="translate(-201.309 -25.836)" fill="#754034"/>
      <path id="パス_136" data-name="パス 136" d="M418.873,324.231,376.3,336.623l-15.561-10.629s-14.168-4.34-18.779-4.932-12.207-.259-17.263-.247a12.823,12.823,0,0,1-7.571-1.985s-4.377-.16-3.206,5.45c1.455,6.954,18,6.905,18,6.905l-21.936.074H297.22l11.1,7.818a16.955,16.955,0,0,0,9.593,3.058h4.464c-1.147,6.165,1.085,9.519,5.166,11.295-3.218,3.033-1.6,8.705,4.71,8.471,3.058-.111,56.474,0,56.474,0l45.968-6.535Z" transform="translate(-188.527 -7.089)" fill="#aa6550"/>
      <path id="パス_137" data-name="パス 137" d="M328.4,337.485a31.254,31.254,0,0,1-7.164.518,59.375,59.375,0,0,1-7.176-.123,31.261,31.261,0,0,1,7.164-.518A56.47,56.47,0,0,1,328.4,337.485Z" transform="translate(-184.602 -2.785)" fill="#754034"/>
      <path id="パス_138" data-name="パス 138" d="M339.363,326.73a59.259,59.259,0,0,1-8.631,1.578,57.609,57.609,0,0,1-8.631.949,60.868,60.868,0,0,1,8.631-1.578,59.275,59.275,0,0,1,8.631-.95Z" transform="translate(-182.729 -5.248)" fill="#754034"/>
      <path id="パス_139" data-name="パス 139" d="M345.729,212.048c.333-.16-.16-1.924-1.233-4.932s-2.873-7.4-4.821-12.824a121.346,121.346,0,0,1-5.413-19.236,64.28,64.28,0,0,1-.074-23.909c1.541-8.446,4.279-16.387,6.511-23.773a118.046,118.046,0,0,0,4.587-20.247,48.634,48.634,0,0,0-.136-14.106c-.592-3.28-1.356-4.932-1.677-4.932-.814.148.518,7.287-1.825,18.5a152.367,152.367,0,0,1-5.586,19.3c-2.466,7.238-5.4,15.29-7.065,24.328a66.753,66.753,0,0,0-.9,6.757c-.074,1.122-.16,2.232-.16,3.354s-.074,2.207,0,3.292a66.5,66.5,0,0,0,1.554,12.33,98.565,98.565,0,0,0,6.708,19.729A127.431,127.431,0,0,0,342.6,208C344.311,210.754,345.421,212.209,345.729,212.048Z" transform="translate(-181.376 -60.863)" fill="#263238"/>
      <path id="パス_140" data-name="パス 140" d="M426.817,112.958a42.1,42.1,0,0,0-46.3-39.186c-22.7,2.133-39.458,22.33-38.681,44.871.678,19.729,1.788,39.63,3.206,46.659,4.254,21.184,18.372,27.053,23.933,28.57a28.548,28.548,0,0,0,5.906.321h0a.136.136,0,0,1,.148.136l-.2,25.277c.838,16.387,12.528,28.915,29.088,28.175s26.905-15.413,26.424-31.874Z" transform="translate(-178.135 -64.251)" fill="#aa6550"/>
      <path id="パス_141" data-name="パス 141" d="M350.57,119.676a3.416,3.416,0,0,0,3.477,3.317,3.329,3.329,0,0,0,3.465-3.255,3.44,3.44,0,0,0-3.477-3.317,3.342,3.342,0,0,0-3.465,3.255Z" transform="translate(-176.094 -54.261)" fill="#263238"/>
      <path id="パス_142" data-name="パス 142" d="M346.742,114.741c.444.432,3-1.615,6.732-1.776s6.535,1.578,6.93,1.1c.185-.21-.284-1-1.5-1.8a9.593,9.593,0,0,0-5.573-1.43,9.211,9.211,0,0,0-5.339,1.973C346.877,113.755,346.52,114.593,346.742,114.741Z" transform="translate(-177 -55.566)" fill="#263238"/>
      <path id="パス_143" data-name="パス 143" d="M379.52,119.4A3.44,3.44,0,0,0,383,122.713a3.354,3.354,0,0,0,3.465-3.255,3.428,3.428,0,0,0-3.477-3.317,3.329,3.329,0,0,0-3.465,3.255Z" transform="translate(-169.347 -54.326)" fill="#263238"/>
      <path id="パス_144" data-name="パス 144" d="M376.522,114c.444.419,3.009-1.615,6.732-1.776s6.547,1.566,6.93,1.1c.2-.21-.271-1-1.5-1.8a9.482,9.482,0,0,0-5.561-1.43,9.223,9.223,0,0,0-5.339,1.961C376.657,112.978,376.3,113.8,376.522,114Z" transform="translate(-170.06 -55.739)" fill="#263238"/>
      <path id="パス_145" data-name="パス 145" d="M368.21,141.834c0-.21-2.33-.506-6.1-.814-.962,0-1.874-.2-2.059-.838a4.833,4.833,0,0,1,.53-2.824c.814-2.318,1.652-4.76,2.54-7.312,3.514-10.395,6.017-18.94,5.6-19.075s-3.613,8.163-7.152,18.533c-.851,2.565-1.652,5.019-2.466,7.4a5.5,5.5,0,0,0-.345,3.7,2.367,2.367,0,0,0,1.628,1.319,7.24,7.24,0,0,0,1.628.148C365.855,142.092,368.21,142.006,368.21,141.834Z" transform="translate(-174.227 -55.531)" fill="#263238"/>
      <path id="パス_146" data-name="パス 146" d="M368.762,173.461s14.464.53,32.059-11.011c0,0-4.932,19.112-32.121,17.83Z" transform="translate(-171.868 -43.533)" fill="#754034"/>
      <path id="パス_147" data-name="パス 147" d="M368.07,143.662a6.819,6.819,0,0,1,5.931-2.75,6.165,6.165,0,0,1,4.34,2.059,3.847,3.847,0,0,1,.469,4.4,4.6,4.6,0,0,1-4.858,1.443,13.836,13.836,0,0,1-4.932-2.614,3.886,3.886,0,0,1-1.11-1.036,1.233,1.233,0,0,1,0-1.381" transform="translate(-172.102 -48.556)" fill="#754034"/>
      <path id="パス_148" data-name="パス 148" d="M377.557,137.65c-.6,0-.456,4-3.81,7s-7.694,2.75-7.707,3.317c0,.247,1,.727,2.824.7a10.259,10.259,0,0,0,6.437-2.54,8.755,8.755,0,0,0,2.935-5.869C378.321,138.587,377.84,137.613,377.557,137.65Z" transform="translate(-172.488 -49.313)" fill="#263238"/>
      <path id="パス_149" data-name="パス 149" d="M374.944,108.656c.407.986,4.118.345,8.52.678s7.99,1.344,8.533.419c.247-.444-.407-1.356-1.874-2.269a15.006,15.006,0,0,0-12.984-.838C375.549,107.337,374.772,108.188,374.944,108.656Z" transform="translate(-170.419 -56.793)" fill="#263238"/>
      <path id="パス_150" data-name="パス 150" d="M347.621,108.641c.69.814,3.231-.173,6.326-.358s5.734.308,6.3-.592c.247-.444-.2-1.233-1.381-2.01a9.236,9.236,0,0,0-10.16.764C347.645,107.358,347.313,108.246,347.621,108.641Z" transform="translate(-176.807 -57.036)" fill="#263238"/>
      <path id="パス_151" data-name="パス 151" d="M338.971,152.34c-3.613,16.141,2.984,32.811,11.245,47.127,3.12,5.4,6.523,10.728,8.385,16.7s1.948,12.824-1.344,18.126a5.117,5.117,0,0,0,6.165-2.466q.462,4.957.9,9.864c4.02,1.726,8.8-1.159,10.74-5.1s1.776-8.545,1.578-12.935c-.592-12.885-.123-28.126-.715-41.011l-22.972-4.661Z" transform="translate(-179.033 -45.889)" fill="#263238"/>
      <path id="パス_152" data-name="パス 152" d="M395.621,102.385c8.705,16.769,9.753,36.461,9.125,55.389s-2.725,38.015.395,56.72c1.233,7.337,3.267,14.8,2.145,22.121-.666,4.328-2.4,8.422-3.28,12.713s-.74,9.112,1.936,12.565,7.559,4.784,11.862,3.958a21.319,21.319,0,0,0,11.1-6.671c6.609-6.967,10.062-16.486,11.344-26.03s.567-19.236-.148-28.841q-2.787-37.485-5.6-74.957c-.8-10.8-1.665-21.862-6.042-31.763A54.945,54.945,0,0,0,406,73.026c-11.566-6.893-26.548-9.864-38.434-3.539-3.97,2.109-7.781,6.165-6.831,10.555.752,3.49,4.143,5.647,7.238,7.4l30.543,17.386" transform="translate(-173.758 -66.009)" fill="#263238"/>
      <path id="パス_153" data-name="パス 153" d="M405.417,231.047c.333-.173-.308-2.109-1.615-5.512s-3.268-8.249-5.29-14.353a97.485,97.485,0,0,1-4.7-21.788c-.789-8.286.271-17.5,1.973-27.127s3.7-19.088,4.229-27.941a69.049,69.049,0,0,0-2.158-23.428,38.483,38.483,0,0,0-7.238-14.18c-.641-.7-1.233-1.307-1.7-1.825a15.676,15.676,0,0,0-1.393-1.233c-.777-.592-1.233-.838-1.369-.715s.1.629.6,1.43l.974,1.467c.345.592.764,1.233,1.233,2.01A45.624,45.624,0,0,1,394.3,111.7a73.675,73.675,0,0,1,.949,22.1c-.777,8.36-2.848,17.546-4.587,27.423s-2.725,19.729-1.615,28.582a86.6,86.6,0,0,0,6.017,22.589A110.382,110.382,0,0,0,402,226.436C403.864,229.58,405.109,231.208,405.417,231.047Z" transform="translate(-167.809 -59.738)" fill="#263238"/>
      <path id="パス_154" data-name="パス 154" d="M440.309,110.834a3.774,3.774,0,0,0-.8-.3l-2.318-.752c-1.011-.308-2.257-.7-3.7-1.233s-3.058-1.011-4.834-1.689c-3.576-1.233-7.78-2.922-12.33-4.932s-9.593-4.34-14.71-7.028-9.864-5.512-14.131-8.175-7.978-5.228-11.1-7.472c-1.554-1.085-2.91-2.146-4.118-3.046s-2.244-1.689-3.07-2.355l-1.936-1.492a5.444,5.444,0,0,0-.7-.493,6.27,6.27,0,0,0,.629.58l1.887,1.566c.814.69,1.813,1.517,3.021,2.466s2.528,2.01,4.081,3.12c3.046,2.269,6.769,4.846,11,7.571s9.014,5.512,14.143,8.224,10.148,5.031,14.8,7.016,8.866,3.576,12.454,4.809c1.788.641,3.428,1.134,4.932,1.6s2.676.838,3.7,1.122l2.355.654A6.061,6.061,0,0,0,440.309,110.834Z" transform="translate(-172.367 -64.643)" fill="#455a64"/>
      <path id="パス_155" data-name="パス 155" d="M440.785,113.5a4.563,4.563,0,0,0-.851-.16l-2.466-.37-1.788-.247-2.1-.382c-1.517-.284-3.243-.543-5.117-1.011l-2.959-.666c-1.023-.234-2.084-.555-3.181-.838-2.207-.555-4.5-1.319-6.942-2.1a136.685,136.685,0,0,1-15.364-6.313,137.5,137.5,0,0,1-14.4-8.274c-2.1-1.455-4.118-2.811-5.906-4.217-.9-.691-1.8-1.332-2.614-2.01l-2.343-1.973c-1.517-1.233-2.787-2.466-3.933-3.428l-1.6-1.443-1.233-1.233-1.862-1.726a7.709,7.709,0,0,0-.654-.58,4.574,4.574,0,0,0,.654.58c.419.456,1,1.048,1.726,1.813l1.233,1.233c.469.456,1,.937,1.566,1.467,1.134,1.048,2.392,2.281,3.9,3.5l2.331,1.973c.814.678,1.7,1.332,2.6,2.035,1.788,1.43,3.8,2.8,5.906,4.279a129.347,129.347,0,0,0,14.439,8.372,129.871,129.871,0,0,0,15.438,6.3c2.466.764,4.759,1.517,6.979,2.059,1.11.284,2.17.592,3.194.814l2.984.641c1.887.432,3.625.678,5.142.937.752.111,1.455.247,2.108.333l1.8.21,2.466.259A5.663,5.663,0,0,0,440.785,113.5Z" transform="translate(-172.621 -63.557)" fill="#fff"/>
      <path id="パス_156" data-name="パス 156" d="M416.979,238.876a1.234,1.234,0,0,0,.074-.333,10.271,10.271,0,0,1,.16-1.023c.123-.888.333-2.195.493-3.909a129.449,129.449,0,0,0,.728-14.476c0-6.165-.395-13.416-1.171-21.467s-1.862-16.88-2.935-26.153c-2.207-18.5-4.192-35.3-5.647-47.472-.74-6.054-1.344-10.949-1.776-14.377-.21-1.677-.382-2.984-.506-3.909l-.148-1.011a1.806,1.806,0,0,0-.062-.345,1.806,1.806,0,0,0,.062.345,4.257,4.257,0,0,0,.1,1.023c.1.925.234,2.244.407,3.921.382,3.428.937,8.335,1.6,14.39,1.418,12.183,3.354,28.964,5.5,47.5,1.085,9.273,2.195,18.089,2.984,26.141s1.233,15.314,1.233,21.418a141.036,141.036,0,0,1-.555,14.464c-.136,1.7-.308,3.021-.407,3.909a8.444,8.444,0,0,1-.1,1.023C416.991,238.79,416.979,238.876,416.979,238.876Z" transform="translate(-163.131 -57.062)" fill="#455a64"/>
      <path id="パス_157" data-name="パス 157" d="M404.491,183.949a4.274,4.274,0,0,0,.086-.851l.148-2.466c.123-2.109.259-5.154.382-8.927.247-7.534.407-17.965.222-29.47s-.7-21.924-1.233-29.445c-.259-3.773-.493-6.806-.678-8.915-.1-1.011-.173-1.813-.222-2.466a4.133,4.133,0,0,0-.123-.838,6.352,6.352,0,0,0,0,.851c0,.6.074,1.406.136,2.466.123,2.145.3,5.179.506,8.9.407,7.534.851,17.941,1.048,29.445s.086,21.911-.074,29.445c-.086,3.7-.16,6.769-.21,8.927v2.466A5.62,5.62,0,0,0,404.491,183.949Z" transform="translate(-163.861 -57.954)" fill="#455a64"/>
    </g>
    <g id="freepik--speech-bubble--inject-100" transform="translate(545.171 82.096)">
      <path id="パス_158" data-name="パス 158" d="M452.3,168.259l10.308-18.422a48.944,48.944,0,1,1,11.763,13.095h0Z" transform="translate(-452.238 -74.461)" fill="#fafafa"/>
      <path id="パス_159" data-name="パス 159" d="M452.312,168.468l22.047-5.462-.086.259h0a.148.148,0,0,1,0-.222.173.173,0,0,1,.2,0,50.453,50.453,0,0,0,10.037,5.98,48.682,48.682,0,0,0,13.366,3.7,42.7,42.7,0,0,0,7.694.333c1.319-.086,2.663-.111,4.02-.259l4.106-.641a48.989,48.989,0,0,0,30.111-19.8,48.458,48.458,0,0,0,8.015-18.816,50.086,50.086,0,0,0-.691-21.566,47.989,47.989,0,0,0-10.407-19.914l-1.985-2.182c-.654-.727-1.43-1.332-2.133-2a26.745,26.745,0,0,0-2.195-1.911l-2.318-1.739a18.5,18.5,0,0,0-2.466-1.591l-2.466-1.492-2.565-1.233a21.119,21.119,0,0,0-2.6-1.147,48.915,48.915,0,0,0-21.7-3.28,47.287,47.287,0,0,0-19.889,6.03A49.322,49.322,0,0,0,457.589,110a52.664,52.664,0,0,0-2.084,15.808,49.174,49.174,0,0,0,7.189,24.18.16.16,0,0,1,0,.148L452.25,168.48c.53-.949,3.7-6.7,10.173-18.5v.16a49.248,49.248,0,0,1-7.4-24.328,52.785,52.785,0,0,1,2.047-15.956,49.8,49.8,0,0,1,23.107-28.878A47.732,47.732,0,0,1,500.3,74.818a49.5,49.5,0,0,1,21.985,3.3,21.69,21.69,0,0,1,2.639,1.159l2.6,1.233,2.466,1.517a22.482,22.482,0,0,1,2.466,1.6L534.8,85.4a20.392,20.392,0,0,1,2.232,1.936c.752.7,1.492,1.295,2.158,2.035l2,2.207a48.5,48.5,0,0,1,10.555,20.173,50.557,50.557,0,0,1,.678,21.837,49.494,49.494,0,0,1-38.619,39l-4.143.641c-1.369.136-2.737.16-4.069.247a42.358,42.358,0,0,1-7.768-.37,48.632,48.632,0,0,1-13.453-3.81,50.333,50.333,0,0,1-10.086-6.079l.222-.234h0a.16.16,0,0,1,0,.222h-.062Z" transform="translate(-452.25 -74.67)" fill="#263238"/>
      <path id="パス_160" data-name="パス 160" d="M518.751,104a12.881,12.881,0,0,1-1.5,1.578l-4.291,4.143c-3.7,3.465-8.718,8.224-14.34,13.453l-.851.8-.21.2-.234-.2-6.88-5.906h.419l-9.383,8.5-2.713,2.392a6.533,6.533,0,0,1-1.023.8,6.572,6.572,0,0,1,.875-.962c.69-.654,1.554-1.492,2.6-2.466l9.211-8.631.21-.185.21.173,6.905,5.882h-.444l.851-.789c5.623-5.228,10.74-9.864,14.476-13.317l4.427-3.97A13.239,13.239,0,0,1,518.751,104Z" transform="translate(-446.31 -67.835)" fill="#263238"/>
      <path id="パス_161" data-name="パス 161" d="M514.009,115.419a17.265,17.265,0,0,1-.37-3.3c-.148-2.059-.308-4.932-.456-8.089l.358.333h-.58c-3.28.136-6.264.234-8.422.259a17.028,17.028,0,0,1-3.49-.086,17.71,17.71,0,0,1,3.477-.395c2.145-.148,5.117-.321,8.409-.456h.9v.333c.123,3.181.21,6.03.234,8.089a17.74,17.74,0,0,1-.062,3.317Z" transform="translate(-440.877 -67.909)" fill="#263238"/>
    </g>
  </g>
</svg>
