<svg id="free" xmlns="http://www.w3.org/2000/svg" width="123.527" height="123.527" viewBox="0 0 123.527 123.527">
  <g id="グループ_16" data-name="グループ 16" transform="translate(21.276 47.474)">
    <g id="グループ_15" data-name="グループ 15">
      <path id="パス_165" data-name="パス 165" d="M99.622,192H88.191a2.859,2.859,0,0,0-2.858,2.858v22.863a2.858,2.858,0,0,0,5.716,0V197.716h8.574a2.858,2.858,0,1,0,0-5.716Z" transform="translate(-85.333 -192)" fill="#4e86de"/>
    </g>
  </g>
  <g id="グループ_18" data-name="グループ 18" transform="translate(21.352 58.906)">
    <g id="グループ_17" data-name="グループ 17">
      <path id="パス_166" data-name="パス 166" d="M93.907,234.667H88.191a2.858,2.858,0,1,0,0,5.716h5.716a2.858,2.858,0,1,0,0-5.716Z" transform="translate(-85.333 -234.667)" fill="#4e86de"/>
    </g>
  </g>
  <g id="グループ_20" data-name="グループ 20" transform="translate(0)">
    <g id="グループ_19" data-name="グループ 19">
      <path id="パス_167" data-name="パス 167" d="M61.764,0a61.764,61.764,0,1,0,61.764,61.764A61.835,61.835,0,0,0,61.764,0Zm0,118.157a56.393,56.393,0,1,1,56.393-56.393A56.455,56.455,0,0,1,61.764,118.157Z" transform="translate(0)" fill="#4e86de"/>
    </g>
  </g>
  <g id="グループ_22" data-name="グループ 22" transform="translate(23.244 17.147)">
    <g id="グループ_21" data-name="グループ 21">
      <path id="パス_168" data-name="パス 168" d="M177.97,82.216a48.513,48.513,0,0,0-75.779,0,2.856,2.856,0,1,0,4.453,3.578,42.8,42.8,0,0,1,66.868,0,2.858,2.858,0,0,0,4.458-3.578Z" transform="translate(-101.56 -64)" fill="#4e86de"/>
    </g>
  </g>
  <g id="グループ_24" data-name="グループ 24" transform="translate(25.757 86.374)">
    <g id="グループ_23" data-name="グループ 23">
      <path id="パス_169" data-name="パス 169" d="M182.065,352.779a2.86,2.86,0,0,0-4.035.109,42.747,42.747,0,0,1-62.158,0,2.856,2.856,0,1,0-4.144,3.933,48.453,48.453,0,0,0,70.446,0A2.856,2.856,0,0,0,182.065,352.779Z" transform="translate(-110.941 -351.994)" fill="#4e86de"/>
    </g>
  </g>
  <g id="グループ_26" data-name="グループ 26" transform="translate(42.552 47.474)">
    <g id="グループ_25" data-name="グループ 25">
      <path id="パス_170" data-name="パス 170" d="M180.348,209.073A8.572,8.572,0,0,0,179.24,192h-5.716a2.859,2.859,0,0,0-2.858,2.858v22.863a2.858,2.858,0,0,0,5.716,0v-4.532l6.55,6.556a2.871,2.871,0,0,0,2.023.835,2.83,2.83,0,0,0,2.018-.84,2.86,2.86,0,0,0,0-4.041Zm-3.967-5.641v-5.716h2.858a2.858,2.858,0,1,1,0,5.716h-2.858Z" transform="translate(-170.666 -192)" fill="#4e86de"/>
    </g>
  </g>
  <g id="グループ_28" data-name="グループ 28" transform="translate(63.828 47.474)">
    <g id="グループ_27" data-name="グループ 27">
      <path id="パス_171" data-name="パス 171" d="M270.288,214.863h-8.574V197.716h8.574a2.858,2.858,0,1,0,0-5.716H258.857A2.859,2.859,0,0,0,256,194.858v22.863a2.859,2.859,0,0,0,2.858,2.858h11.432a2.858,2.858,0,0,0,0-5.716Z" transform="translate(-255.999 -192)" fill="#4e86de"/>
    </g>
  </g>
  <g id="グループ_30" data-name="グループ 30" transform="translate(64.055 58.906)">
    <g id="グループ_29" data-name="グループ 29">
      <path id="パス_172" data-name="パス 172" d="M264.574,234.667h-5.716a2.858,2.858,0,1,0,0,5.716h5.716a2.858,2.858,0,1,0,0-5.716Z" transform="translate(-256 -234.667)" fill="#4e86de"/>
    </g>
  </g>
  <g id="グループ_32" data-name="グループ 32" transform="translate(85.104 47.474)">
    <g id="グループ_31" data-name="グループ 31">
      <path id="パス_173" data-name="パス 173" d="M355.622,214.863h-8.574V197.716h8.574a2.858,2.858,0,1,0,0-5.716H344.191a2.859,2.859,0,0,0-2.858,2.858v22.863a2.859,2.859,0,0,0,2.858,2.858h11.431a2.858,2.858,0,0,0,0-5.716Z" transform="translate(-341.333 -192)" fill="#4e86de"/>
    </g>
  </g>
  <g id="グループ_34" data-name="グループ 34" transform="translate(85.406 58.906)">
    <g id="グループ_33" data-name="グループ 33">
      <path id="パス_174" data-name="パス 174" d="M349.907,234.667h-5.716a2.858,2.858,0,1,0,0,5.716h5.716a2.858,2.858,0,1,0,0-5.716Z" transform="translate(-341.333 -234.667)" fill="#4e86de"/>
    </g>
  </g>
</svg>
