<svg id="hand" xmlns="http://www.w3.org/2000/svg" width="120.637" height="107.429" viewBox="0 0 120.637 107.429">
  <g id="グループ_10" data-name="グループ 10" transform="translate(16.461 55.174)">
    <g id="グループ_9" data-name="グループ 9">
      <path id="パス_162" data-name="パス 162" d="M62.743,263.972a2.743,2.743,0,1,0,2.743,2.743A2.744,2.744,0,0,0,62.743,263.972Z" transform="translate(-60 -263.972)" fill="#4e86de"/>
    </g>
  </g>
  <g id="グループ_12" data-name="グループ 12" transform="translate(0 0)">
    <g id="グループ_11" data-name="グループ 11">
      <path id="パス_163" data-name="パス 163" d="M120.637,91.868a10.586,10.586,0,0,0-3.946-8.245,10.613,10.613,0,0,0,3.8-10.013,10.931,10.931,0,0,0-10.9-8.839H87.149l.7-2.1c3.993-11.977.285-24.775-8.5-32.262A9.965,9.965,0,0,0,63.485,34.6a2.356,2.356,0,0,0-.036,1.519c1.957,6.226,1.985,10.412.1,14.448-1.959,4.187-6.173,8.583-14.092,14.7A35.007,35.007,0,0,1,44.284,68.5a21.707,21.707,0,0,0-7.418,5.7H28.274V71.84a2.356,2.356,0,0,0-2.356-2.356H2.356A2.356,2.356,0,0,0,0,71.84V133.1a2.356,2.356,0,0,0,2.356,2.356H25.918a2.356,2.356,0,0,0,2.356-2.356v-7.069H41.49a37.315,37.315,0,0,0,24.865,9.425H95.9a10.6,10.6,0,0,0,8.811-16.493h.614a10.594,10.594,0,0,0,8.346-17.131A10.6,10.6,0,0,0,120.637,91.868ZM23.562,130.745H4.712V74.2h18.85Zm86.472-32.987H87.415a2.356,2.356,0,0,0,0,4.712h17.907a5.89,5.89,0,0,1,0,11.781H87.415a2.356,2.356,0,0,0,0,4.712H95.9a5.89,5.89,0,1,1,0,11.781H66.355a32.618,32.618,0,0,1-22.345-8.79,2.356,2.356,0,0,0-1.608-.634H28.274V78.909h9.745a2.356,2.356,0,0,0,1.9-.959c2.125-2.887,4.005-3.9,6.607-5.307a39.471,39.471,0,0,0,5.81-3.65C68.466,56.532,72.158,48.9,68.205,35.554a5.243,5.243,0,0,1,8.227-1.424,25.162,25.162,0,0,1,6.945,27.056l-1.195,3.586H79.168a2.356,2.356,0,0,0,0,4.712h30.425a6.187,6.187,0,0,1,6.249,4.884,5.892,5.892,0,0,1-5.808,6.9H87.415a2.356,2.356,0,1,0,0,4.712h22.619a5.89,5.89,0,1,1,0,11.78Z" transform="translate(0 -28.029)" fill="#4e86de"/>
    </g>
  </g>
  <g id="グループ_14" data-name="グループ 14" transform="translate(16.461 58.046)">
    <g id="グループ_13" data-name="グループ 13">
      <path id="パス_164" data-name="パス 164" d="M62.743,303.972A2.743,2.743,0,0,0,60,306.715V334.15a2.743,2.743,0,1,0,5.487,0V306.715A2.743,2.743,0,0,0,62.743,303.972Z" transform="translate(-60 -303.972)" fill="#4e86de"/>
    </g>
  </g>
</svg>
