<svg xmlns="http://www.w3.org/2000/svg" width="112.254" height="124.943" viewBox="0 0 112.254 124.943">
  <g id="support" transform="translate(0)">
    <g id="グループ_39" data-name="グループ 39" transform="translate(80.53 96.636)">
      <g id="グループ_38" data-name="グループ 38">
        <path id="パス_175" data-name="パス 175" d="M358.44,396a2.44,2.44,0,1,0,2.44,2.44A2.441,2.441,0,0,0,358.44,396Z" transform="translate(-356 -396)" fill="#4e86de"/>
      </g>
    </g>
    <g id="グループ_41" data-name="グループ 41" transform="translate(0)">
      <g id="グループ_40" data-name="グループ 40">
        <path id="パス_176" data-name="パス 176" d="M114.979,88.745l-11.6-3.865-4.164-8.328a26.728,26.728,0,0,0,7.234-14.139l.519-3.113h4.441a7.329,7.329,0,0,0,7.321-7.321V36.6a36.6,36.6,0,0,0-73.209,0V51.978a7.333,7.333,0,0,0,4.881,6.9v2.86a7.329,7.329,0,0,0,7.321,7.321h2.143A26.474,26.474,0,0,0,63.96,75.4c.346.4.706.782,1.075,1.157l-4.162,8.323-11.6,3.866C35.789,93.242,26,107.439,26,122.5a2.44,2.44,0,0,0,2.44,2.44H135.814a2.44,2.44,0,0,0,2.44-2.44C138.254,107.439,128.466,93.242,114.979,88.745Zm-1.128-36.766a2.443,2.443,0,0,1-2.44,2.44h-3.724c.62-4.8,1.034-9.918,1.2-14.954,0-.142.009-.28.013-.42h4.952Zm-61.008,2.44a2.443,2.443,0,0,1-2.44-2.44V39.045h4.953q.012.382.026.768c0,.009,0,.017,0,.026v0c.171,4.9.579,9.879,1.185,14.578H52.843Zm4.881,9.761a2.443,2.443,0,0,1-2.44-2.44V59.3h2l.519,3.114c.1.592.221,1.181.362,1.767ZM55.288,34.164H50.5a31.725,31.725,0,0,1,63.262,0h-4.792a24.716,24.716,0,0,0-24.655-24.4H79.943A24.716,24.716,0,0,0,55.288,34.164ZM79.943,14.642h4.368A19.843,19.843,0,0,1,104.09,34.508c0,.768-.006,1.437-.019,2.045,0,.008,0,.016,0,.024l-3.052-.436A39.212,39.212,0,0,1,78.972,25.118a2.441,2.441,0,0,0-1.726-.715,22.077,22.077,0,0,0-16.974,8.031A19.837,19.837,0,0,1,79.943,14.642ZM63.224,64.18C62,60.116,60.6,48.159,60.3,40.5l3.284-4.379a17.177,17.177,0,0,1,12.7-6.806,44.139,44.139,0,0,0,24.046,11.661l3.593.513c-.24,5.1-.731,10.211-1.434,14.915v0c-.224,1.512-.4,2.485-.85,5.2-1.292,7.752-7.076,14.761-14.712,16.67A19.2,19.2,0,0,1,65.37,69.061h4.975a7.332,7.332,0,0,0,6.9,4.881h4.881a7.321,7.321,0,0,0,0-14.642H77.246a7.324,7.324,0,0,0-6.905,4.881ZM77.041,83.218a24.477,24.477,0,0,0,9.076.2l-4.312,4.56Zm1.41,8.312-7.74,8.185a92.978,92.978,0,0,1-5.464-12.669l2.907-5.813ZM95.687,80.406l3.32,6.64a92.951,92.951,0,0,1-5.464,12.673l-8.284-8.284ZM74.806,66.62a2.441,2.441,0,0,1,2.44-2.44h4.881a2.44,2.44,0,0,1,0,4.881H77.246A2.443,2.443,0,0,1,74.806,66.62ZM30.978,120.063c.967-12.089,9.013-23.077,19.84-26.688l10.272-3.423a97.825,97.825,0,0,0,6.946,15.066l.014.025h0a97.853,97.853,0,0,0,6.68,10.2l3,4.819Zm51.149-2.175-3.31-5.313q-.056-.089-.119-.174a93.046,93.046,0,0,1-5.5-8.215l8.7-9.2,9.17,9.17a92.944,92.944,0,0,1-5.518,8.247C85.436,112.56,85.606,112.309,82.127,117.888Zm4.395,2.175,3-4.819a97.81,97.81,0,0,0,6.726-10.281l.036-.065,0-.008a97.745,97.745,0,0,0,6.873-14.938l10.272,3.423c10.828,3.611,18.873,14.6,19.84,26.688H86.522Z" transform="translate(-26)" fill="#4e86de"/>
      </g>
    </g>
    <g id="グループ_43" data-name="グループ 43" transform="translate(89.105 101.294)">
      <g id="グループ_42" data-name="グループ 42">
        <path id="パス_177" data-name="パス 177" d="M401.976,423.982a24.4,24.4,0,0,0-6.908-8.387,2.44,2.44,0,0,0-2.976,3.868,19.488,19.488,0,0,1,5.518,6.7,2.44,2.44,0,0,0,4.366-2.181Z" transform="translate(-391.139 -415.089)" fill="#4e86de"/>
      </g>
    </g>
  </g>
</svg>
